<svg width="1440" height="347" viewBox="0 0 1440 347" fill="none" xmlns="http://www.w3.org/2000/svg">
<path d="M-75 107H81.8691C203.442 107.012 234.491 147.648 249.836 184.411C267.544 215.793 303.601 213.402 311.634 214H454" stroke="black" stroke-width="2" stroke-miterlimit="10"/>
<path d="M-75 165H81.8691C203.442 165.005 234.491 183.615 249.836 200.45C267.544 214.821 303.601 213.726 311.634 214H454" stroke="black" stroke-miterlimit="10"/>
<path d="M-75 263H81.8691C203.442 262.995 234.491 244.385 249.836 227.55C267.544 213.179 303.601 214.274 311.634 214H454" stroke="black" stroke-miterlimit="10"/>
<path d="M-75 321H81.5726C202.916 320.988 233.906 280.352 249.222 243.589C266.896 212.207 302.885 214.598 310.903 214H453" stroke="black" stroke-width="2" stroke-miterlimit="10"/>
<path d="M1451 214L319 214" stroke="black" stroke-width="2"/>
<rect width="308" height="292" transform="matrix(-1 0 0 1 174 55)" fill="url(#paint0_linear_2074_2345)"/>
<rect x="1218" width="310" height="292" fill="url(#paint1_linear_2074_2345)"/>
<defs>
<linearGradient id="paint0_linear_2074_2345" x1="-381.101" y1="292" x2="650.114" y2="292" gradientUnits="userSpaceOnUse">
<stop offset="0.378127" stop-color="#FCFCF5" stop-opacity="0"/>
<stop offset="0.521414" stop-color="#FCFCF5"/>
</linearGradient>
<linearGradient id="paint1_linear_2074_2345" x1="834.424" y1="292" x2="1872.34" y2="292" gradientUnits="userSpaceOnUse">
<stop offset="0.378127" stop-color="#FCFCF5" stop-opacity="0"/>
<stop offset="0.521414" stop-color="#FCFCF5"/>
</linearGradient>
</defs>
</svg>
