<svg width="44" height="47" viewBox="0 0 44 47" fill="none" xmlns="http://www.w3.org/2000/svg">
<path d="M37.1267 1.396H9.08044V39.1505H37.1267V1.396Z" fill="#649F8E"/>
<path d="M33.8905 6.79004H12.676V33.7576H33.8905V6.79004Z" fill="#F1EFE5"/>
<path d="M34.8685 0.317139H11.9173C10.0727 0.317139 8.56616 1.82372 8.56616 3.6683V37.1727C8.56616 39.0173 10.0727 40.5239 11.9173 40.5239H34.8685C36.7131 40.5239 38.2196 39.0173 38.2196 37.1727V3.6683C38.2196 1.82372 36.7131 0.317139 34.8685 0.317139ZM36.5441 37.1727C36.5441 38.0932 35.789 38.8483 34.8685 38.8483H11.9173C10.9968 38.8483 10.2417 38.0932 10.2417 37.1727V3.6683C10.2417 2.74781 10.9968 1.99272 11.9173 1.99272H34.8685C35.789 1.99272 36.5441 2.74781 36.5441 3.6683V37.1727Z" fill="black"/>
<path d="M34.0306 6.18213H12.755C12.2516 6.18213 11.9172 6.51653 11.9172 7.01992V33.5703C11.9172 34.0737 12.2516 34.4081 12.755 34.4081H34.0306C34.534 34.4081 34.8684 34.0737 34.8684 33.5703V7.01992C34.8684 6.51653 34.534 6.18213 34.0306 6.18213ZM33.1928 32.7325H13.5928V7.85771H33.1928V32.7325Z" fill="black"/>
<path d="M11.9568 33.0381C11.9101 32.2794 15.1929 24.7681 15.1929 24.7681L18.0659 26.289C18.9504 26.9003 19.4143 27.9574 19.2668 29.0217L18.7095 33.0381H28.0007C28.4969 33.0381 29.7302 34.3901 29.7302 34.3901L25.6456 45.2094L14.819 45.9861L12.3128 43.7676L11.9532 33.0417L11.9568 33.0381Z" fill="#F1EFE5"/>
<path d="M34.969 27.2847C39.5364 27.2847 43.2391 23.5821 43.2391 19.0147C43.2391 14.4473 39.5364 10.7446 34.969 10.7446C30.4016 10.7446 26.699 14.4473 26.699 19.0147C26.699 23.5821 30.4016 27.2847 34.969 27.2847Z" fill="#F1EFE5"/>
<path d="M11.2773 33.0383H6.88339C6.30949 33.0383 5.84424 33.5036 5.84424 34.0775V44.9436C5.84424 45.5175 6.30949 45.9827 6.88339 45.9827H11.2773C11.8512 45.9827 12.3164 45.5175 12.3164 44.9436V34.0775C12.3164 33.5036 11.8512 33.0383 11.2773 33.0383Z" fill="#F1EFE5"/>
<path d="M9.79934 20.8128C14.3668 20.8128 18.0694 17.1102 18.0694 12.5427C18.0694 7.97533 14.3668 4.27271 9.79934 4.27271C5.23192 4.27271 1.5293 7.97533 1.5293 12.5427C1.5293 17.1102 5.23192 20.8128 9.79934 20.8128Z" fill="#F1EFE5"/>
<path d="M22.2083 39.1331H18.7097C18.1847 39.1331 17.8359 39.4818 17.8359 40.0068C17.8359 40.5318 18.1847 40.8806 18.7097 40.8806H22.2083C22.7332 40.8806 23.082 40.5318 23.082 40.0068C23.082 39.4818 22.6433 39.1331 22.2083 39.1331Z" fill="black"/>
<path d="M20.1261 4.84038H20.8812C21.3846 4.84038 21.719 4.50598 21.719 4.00259C21.719 3.49919 21.3846 3.16479 20.8812 3.16479H20.1261C19.6227 3.16479 19.2883 3.49919 19.2883 4.00259C19.2883 4.42328 19.6227 4.84038 20.1261 4.84038Z" fill="black"/>
<path d="M23.9773 4.84038H26.7424C27.2458 4.84038 27.5802 4.50598 27.5802 4.00259C27.5802 3.49919 27.2458 3.16479 26.7424 3.16479H23.9773C23.4739 3.16479 23.1395 3.49919 23.1395 4.00259C23.1395 4.42328 23.4739 4.84038 23.9773 4.84038Z" fill="black"/>
<path d="M27.8317 32.3543H19.5365L19.9788 31.0599C20.5505 29.3879 20.288 27.6008 19.2597 26.1626C18.2313 24.7243 16.6276 23.9009 14.8586 23.9009C14.5493 23.9009 14.2761 24.0986 14.1754 24.3899L11.457 32.3543H6.78268C5.98803 32.3543 5.34082 33.0015 5.34082 33.7962V45.2052C5.34082 45.9999 5.98803 46.6471 6.78268 46.6471H11.2521C12.0467 46.6471 12.694 45.9999 12.694 45.2052V45.1513L14.6428 46.5176C14.7651 46.6039 14.9089 46.6471 15.0563 46.6471H24.4734C25.4047 46.6471 26.2281 46.0538 26.5229 45.1729L29.8777 35.2057C30.1042 34.5369 29.9963 33.8249 29.5864 33.2532C29.1765 32.6815 28.5365 32.3507 27.8281 32.3507L27.8317 32.3543ZM6.78268 45.2088V33.7998H11.2521V45.2088H6.78268ZM28.5149 34.749L25.1601 44.7162C25.0631 45.0111 24.7862 45.2052 24.477 45.2052H15.2864L12.694 43.3894V33.1957L15.3619 25.3787C16.455 25.5153 17.4295 26.0906 18.0839 27.0075C18.839 28.0611 19.0295 29.3699 18.6124 30.5996L17.8466 32.8469C17.771 33.0662 17.807 33.3107 17.9436 33.5013C18.0803 33.6919 18.296 33.8034 18.5297 33.8034H27.8317C28.0654 33.8034 28.2812 33.9112 28.4178 34.1054C28.5545 34.2996 28.5904 34.5333 28.5149 34.7562V34.749Z" fill="black"/>
<path d="M38.874 15.2467C37.7629 14.1356 36.0442 13.9954 34.7785 14.8296C34.2499 14.4808 33.6315 14.2938 32.9843 14.2938C32.1141 14.2938 31.2979 14.6318 30.683 15.2467C29.4138 16.516 29.4138 18.5835 30.683 19.8527L34.2679 23.4376C34.4081 23.5779 34.5915 23.6498 34.7785 23.6498C34.9655 23.6498 35.1489 23.5779 35.2891 23.4376L38.874 19.8527C40.1432 18.5835 40.1432 16.516 38.874 15.2467Z" fill="#F9A779"/>
<path d="M34.7788 9.84229C29.7449 9.84229 25.6494 13.9378 25.6494 18.9717C25.6494 24.0056 29.7449 28.1011 34.7788 28.1011C39.8128 28.1011 43.9082 24.0056 43.9082 18.9717C43.9082 13.9378 39.8128 9.84229 34.7788 9.84229ZM34.7788 26.6592C30.5395 26.6592 27.0913 23.211 27.0913 18.9717C27.0913 14.7324 30.5395 11.2841 34.7788 11.2841C39.0181 11.2841 42.4664 14.7324 42.4664 18.9717C42.4664 23.211 39.0181 26.6592 34.7788 26.6592Z" fill="black"/>
<path d="M18.8928 12.5073C18.8928 7.4734 14.7974 3.37793 9.76343 3.37793C4.72949 3.37793 0.634033 7.4734 0.634033 12.5073C0.634033 17.5413 4.72949 21.6367 9.76343 21.6367C14.7974 21.6367 18.8928 17.5413 18.8928 12.5073ZM2.07589 12.5073C2.07589 8.26804 5.52414 4.81979 9.76343 4.81979C14.0027 4.81979 17.451 8.26804 17.451 12.5073C17.451 16.7466 14.0027 20.1949 9.76343 20.1949C5.52414 20.1949 2.07589 16.7466 2.07589 12.5073Z" fill="black"/>
<path d="M10.4899 14.6713L9.87144 16.4763C9.74199 16.8538 9.94335 17.2637 10.3209 17.3932C10.6877 17.5226 11.1083 17.3249 11.2378 16.9437L12.0181 14.6677H14.1035C14.5027 14.6677 14.8263 14.3441 14.8263 13.9449C14.8263 13.5458 14.5027 13.2222 14.1035 13.2222H12.5142L13.0104 11.7803H14.1035C14.5027 11.7803 14.8263 11.4567 14.8263 11.0576C14.8263 10.6585 14.5027 10.3349 14.1035 10.3349H13.5031L14.1215 8.52986C14.251 8.15232 14.0496 7.74241 13.6721 7.61297C13.2945 7.48352 12.8846 7.68488 12.7552 8.06242L11.9749 10.3385H9.03364L9.6521 8.53346C9.78154 8.15591 9.58018 7.746 9.20264 7.61656C8.82509 7.48712 8.41519 7.68847 8.28575 8.06602L7.50548 10.3421H5.42C5.02088 10.3421 4.69727 10.6657 4.69727 11.0648C4.69727 11.4639 5.02088 11.7875 5.42 11.7875H7.00928L6.51307 13.2294H5.42C5.02088 13.2294 4.69727 13.553 4.69727 13.9521C4.69727 14.3512 5.02088 14.6749 5.42 14.6749H6.02047L5.40201 16.4799C5.27257 16.8574 5.47393 17.2673 5.85147 17.3968C6.21823 17.5262 6.63893 17.3285 6.76837 16.9473L7.54863 14.6713H10.4899ZM8.53744 11.7875H11.4787L10.9825 13.2294H8.04123L8.53744 11.7875Z" fill="black"/>
<path d="M34.7785 14.8296C34.2499 14.4808 33.6315 14.2938 32.9843 14.2938C32.1141 14.2938 31.2979 14.6318 30.683 15.2467C29.4138 16.516 29.4138 18.5835 30.683 19.8527L34.2679 23.4376C34.4081 23.5779 34.5915 23.6498 34.7785 23.6498C34.9655 23.6498 35.1489 23.5779 35.2891 23.4376L38.874 19.8527C40.1432 18.5835 40.1432 16.516 38.874 15.2467C37.7629 14.1356 36.0442 13.9954 34.7785 14.8296ZM37.8528 18.8316L34.7785 21.9059L31.7042 18.8316C30.9959 18.1232 30.9959 16.9726 31.7042 16.2679C32.0458 15.9263 32.5024 15.7357 32.9879 15.7357C33.4733 15.7357 33.9299 15.9227 34.2715 16.2679C34.4081 16.4045 34.5879 16.48 34.7821 16.48C34.9763 16.48 35.156 16.4045 35.2927 16.2679C36.001 15.5631 37.1516 15.5595 37.8564 16.2679C38.5647 16.9762 38.5647 18.1268 37.8564 18.8316H37.8528Z" fill="black"/>
</svg>
