<svg width="47" height="47" viewBox="0 0 47 47" fill="none" xmlns="http://www.w3.org/2000/svg">
<path d="M45.6661 45.5655V17.5193H23.5527H1.43933V45.5655H45.6661Z" fill="#649F8E"/>
<path d="M13.3051 39.452C17.674 39.452 21.2156 35.9104 21.2156 31.5416C21.2156 27.1727 17.674 23.6311 13.3051 23.6311C8.93629 23.6311 5.39465 27.1727 5.39465 31.5416C5.39465 35.9104 8.93629 39.452 13.3051 39.452Z" fill="#F1EFE5"/>
<path d="M6.14275 17.1525H12.5394C12.5394 17.1525 12.8918 10.6084 10.7596 12.0862C8.62737 13.564 6.16793 11.3922 6.13916 17.1525H6.14275Z" fill="#F9A779"/>
<path d="M42.4908 16.2316H36.8168V14.6926C36.8168 14.1173 36.4321 13.7326 35.8568 13.7326C35.2815 13.7326 34.8967 14.1173 34.8967 14.6926V16.2316H32.3977V14.6926C32.3977 14.1173 32.013 13.7326 31.4377 13.7326C30.8624 13.7326 30.4777 14.1173 30.4777 14.6926V16.2316H27.9787V14.6926C27.9787 14.1173 27.5939 13.7326 27.0186 13.7326C26.4433 13.7326 26.0586 14.1173 26.0586 14.6926V16.2316H23.5596V14.6926C23.5596 14.1173 23.1749 13.7326 22.5995 13.7326C22.0242 13.7326 21.6395 14.1173 21.6395 14.6926V16.2316H13.5636V15.365C13.5636 14.1137 12.9883 12.9595 12.1218 12.2871L37.029 2.76581C37.5108 2.57524 37.7985 1.99634 37.6043 1.51452C37.4137 1.0327 36.8348 0.745043 36.353 0.939209L9.14097 11.3235C7.02672 11.4206 5.2936 13.2472 5.2936 15.3614V16.228H4.04231C1.92805 16.228 0.194946 17.9575 0.194946 20.0754V43.1524C0.194946 45.2666 1.92446 46.9997 4.04231 46.9997H42.5052C44.6194 46.9997 46.3525 45.2702 46.3525 43.1524V20.079C46.3525 17.9647 44.623 16.2316 42.5052 16.2316H42.4908ZM7.1993 15.365C7.1993 14.2108 8.15936 13.1537 9.41065 13.1537C10.5649 13.1537 11.622 14.1137 11.622 15.365V16.2316H7.1993V15.365ZM44.4145 43.156C44.4145 44.2131 43.5479 45.0796 42.4908 45.0796H4.02793C2.9708 45.0796 2.10425 44.2131 2.10425 43.156V20.079C2.10425 19.0218 2.9708 18.1553 4.02793 18.1553H42.4908C43.5479 18.1553 44.4145 19.0218 44.4145 20.079V43.156Z" fill="black"/>
<path d="M40.1828 24.0234H24.797C24.2217 24.0234 23.8369 24.4082 23.8369 24.9835C23.8369 25.5588 24.2217 25.9435 24.797 25.9435H40.1828C40.7581 25.9435 41.1429 25.5588 41.1429 24.9835C41.1429 24.4082 40.7581 24.0234 40.1828 24.0234Z" fill="black"/>
<path d="M40.1828 30.658H24.797C24.2217 30.658 23.8369 31.0427 23.8369 31.618C23.8369 32.1933 24.2217 32.578 24.797 32.578H40.1828C40.7581 32.578 41.1429 32.1933 41.1429 31.618C41.1429 31.0427 40.7581 30.658 40.1828 30.658Z" fill="black"/>
<path d="M40.1828 37.2917H24.797C24.2217 37.2917 23.8369 37.6765 23.8369 38.2518C23.8369 38.8271 24.2217 39.2118 24.797 39.2118H40.1828C40.7581 39.2118 41.1429 38.8271 41.1429 38.2518C41.1429 37.6765 40.7581 37.2917 40.1828 37.2917Z" fill="black"/>
<path d="M13.1613 22.675C8.25681 22.675 4.21887 26.713 4.21887 31.6175C4.21887 36.522 8.25681 40.5599 13.1613 40.5599C18.0658 40.5599 22.1037 36.522 22.1037 31.6175C22.1037 26.713 18.0658 22.675 13.1613 22.675ZM13.1613 38.6362C9.31393 38.6362 6.14255 35.4612 6.14255 31.6175C6.14255 27.7737 9.31753 24.5987 13.1613 24.5987C17.0051 24.5987 20.18 27.7737 20.18 31.6175C20.18 35.4612 17.0051 38.6362 13.1613 38.6362Z" fill="black"/>
<path d="M40.1999 16.2757H34.9344V14.6887C34.9344 14.0954 34.5773 13.6987 34.0434 13.6987C33.5095 13.6987 33.1525 14.0954 33.1525 14.6887V16.2757H30.8333V14.6887C30.8333 14.0954 30.4763 13.6987 29.9424 13.6987C29.4085 13.6987 29.0515 14.0954 29.0515 14.6887V16.2757H26.7323V14.6887C26.7323 14.0954 26.3753 13.6987 25.8414 13.6987C25.3075 13.6987 24.9504 14.0954 24.9504 14.6887V16.2757H22.6313V14.6887C22.6313 14.0954 22.2743 13.6987 21.7404 13.6987C21.2065 13.6987 20.8494 14.0954 20.8494 14.6887V16.2757H13.3381V15.3821C13.3381 14.0917 12.8042 12.9015 12 12.2081L35.1112 2.39313C35.5583 2.1966 35.8253 1.59962 35.6451 1.10276C35.4683 0.60589 34.931 0.309253 34.4839 0.509483L9.23378 11.2181C7.2717 11.3182 5.66333 13.2018 5.66333 15.3821V16.2757H40.1999ZM7.44856 15.3821C7.44856 14.1919 8.3395 13.1017 9.50073 13.1017C10.5719 13.1017 11.5529 14.0917 11.5529 15.3821V16.2757H7.44856V15.3821Z" fill="#F1EFE5"/>
</svg>
