<svg width="47" height="45" viewBox="0 0 47 45" fill="none" xmlns="http://www.w3.org/2000/svg">
<path d="M45.522 10.5654H2.0144V39.6904H45.522V10.5654Z" fill="#649F8E"/>
<path d="M11.7229 40.7695H6.68896V43.6461H11.7229V40.7695Z" fill="black"/>
<path d="M40.4883 40.7695H35.814V43.6461H40.4883V40.7695Z" fill="black"/>
<path d="M40.1286 21.3525C41.618 21.3525 42.8254 20.1451 42.8254 18.6557C42.8254 17.1664 41.618 15.959 40.1286 15.959C38.6393 15.959 37.4319 17.1664 37.4319 18.6557C37.4319 20.1451 38.6393 21.3525 40.1286 21.3525Z" fill="#F9A779"/>
<path d="M32.5776 14.8806H5.9696V35.3759H32.5776V14.8806Z" fill="#F1EFE5"/>
<path d="M43.0663 9.0232H22.4883L26.6233 4.88818C27.0081 4.50344 27.0081 3.92814 26.6233 3.5434C26.2386 3.15866 25.6633 3.15866 25.2786 3.5434L20.7588 8.06316L13.7401 1.04441C13.3553 0.659675 12.78 0.659675 12.3953 1.04441C12.0105 1.42915 12.0105 2.00446 12.3953 2.38919L19.0293 9.0232H4.60347C2.48922 9.0232 0.756104 10.7527 0.756104 12.8706V37.2924C0.756104 39.4066 2.48562 41.1397 4.60347 41.1397H5.94825V43.7358C5.94825 44.3111 6.33298 44.6958 6.90829 44.6958H12.4852C13.0605 44.6958 13.4452 44.3111 13.4452 43.7358V41.1397H34.3109V43.7358C34.3109 44.3111 34.6956 44.6958 35.2709 44.6958H40.8478C41.4231 44.6958 41.8078 44.3111 41.8078 43.7358V41.1397H43.0556C45.1698 41.1397 46.9029 39.4102 46.9029 37.2924V12.8706C46.9029 10.7563 45.1734 9.0232 43.0556 9.0232H43.0663ZM11.428 42.6787H7.86835V41.1397H11.5215V42.6787H11.4244H11.428ZM39.7943 42.6787H36.1411V41.1397H39.7943V42.6787ZM44.9864 37.1989C44.9864 38.256 44.1199 39.1225 43.0627 39.1225H4.59987C3.54275 39.1225 2.6762 38.256 2.6762 37.1989V12.8706C2.6762 11.8134 3.54275 10.9469 4.59987 10.9469H43.0627C44.1199 10.9469 44.9864 11.8134 44.9864 12.8706V37.1989Z" fill="black"/>
<path d="M30.5641 12.8708H8.4471C6.33285 12.8708 4.59973 14.6003 4.59973 16.7181V33.4488C4.59973 35.563 6.32925 37.2962 8.4471 37.2962H30.5641C32.6783 37.2962 34.4114 35.5666 34.4114 33.4488V16.7146C34.4114 14.6003 32.6819 12.8672 30.5641 12.8672V12.8708ZM32.4877 33.3517C32.4877 34.4088 31.6212 35.2754 30.5641 35.2754H8.4471C7.38998 35.2754 6.52341 34.4088 6.52341 33.3517V16.7181C6.52341 15.661 7.38998 14.7945 8.4471 14.7945H30.5641C31.6212 14.7945 32.4877 15.661 32.4877 16.7181V33.3553V33.3517Z" fill="black"/>
<path d="M42.0093 33.5422H37.7772C37.2019 33.5422 36.8171 33.927 36.8171 34.5023C36.8171 35.0776 37.2019 35.4623 37.7772 35.4623H42.0093C42.5846 35.4623 42.9693 35.0776 42.9693 34.5023C42.9693 33.927 42.5846 33.5422 42.0093 33.5422Z" fill="black"/>
<path d="M42.0093 28.4468H37.7772C37.2019 28.4468 36.8171 28.8315 36.8171 29.4068C36.8171 29.9821 37.2019 30.3669 37.7772 30.3669H42.0093C42.5846 30.3669 42.9693 29.9821 42.9693 29.4068C42.9693 28.8315 42.5846 28.4468 42.0093 28.4468Z" fill="black"/>
<path d="M39.9886 14.3115C37.8743 14.3115 36.0477 16.041 36.0477 18.2524C36.0477 20.4637 37.7772 22.1932 39.9886 22.1932C42.1999 22.1932 43.9294 20.4637 43.9294 18.2524C43.9294 16.041 42.1028 14.3115 39.9886 14.3115ZM39.9886 20.2731C38.9314 20.2731 37.9678 19.4066 37.9678 18.2524C37.9678 17.0982 38.8344 16.2316 39.9886 16.2316C41.0457 16.2316 42.0093 17.0982 42.0093 18.2524C42.0093 19.4066 41.0493 20.2731 39.9886 20.2731Z" fill="black"/>
<g clip-path="url(#clip0_2238_3011)">
<path d="M11.8281 40.9946H6.83313V43.4672H11.8281V40.9946Z" fill="#F1EFE5"/>
<path d="M40.3707 40.9946H35.7325V43.4672H40.3707V40.9946Z" fill="#F1EFE5"/>
<path d="M22.5102 9.45531L26.6132 5.39326C26.995 5.01531 26.995 4.45015 26.6132 4.07221C26.2314 3.69426 25.6606 3.69426 25.2788 4.07221L20.7941 8.5122L13.8261 1.61378C13.4443 1.23584 12.8735 1.23584 12.4917 1.61378C12.11 1.99173 12.11 2.55688 12.4917 2.93483L19.0744 9.45177L22.5102 9.45531ZM4.76379 41.0051H6.09816V43.5553C6.09816 44.1205 6.47992 44.4984 7.05077 44.4984H12.5845C13.1553 44.4984 13.5371 44.1205 13.5371 43.5553V41.0051H34.2412V43.5553C34.2412 44.1205 34.623 44.4984 35.1938 44.4984H40.7275C41.2984 44.4984 41.6801 44.1205 41.6801 43.5553V41.0051H42.9182H4.76379ZM7.99625 42.5169V41.0051H11.6212V42.5169H11.5248H7.99625ZM39.6715 42.5169H36.0465V41.0051H39.6715V42.5169Z" fill="#F1EFE5"/>
</g>
<defs>
<clipPath id="clip0_2238_3011">
<rect width="43.1708" height="43.1708" fill="white" transform="translate(2.19495 1.3313)"/>
</clipPath>
</defs>
</svg>
