{
    "asset" : {
        "generator" : "Khronos glTF Blender I/O v1.8.19",
        "version" : "2.0"
    },
    "scene" : 0,
    "scenes" : [
        {
            "name" : "Scene",
            "nodes" : [
                2
            ]
        }
    ],
    "nodes" : [
        {
            "mesh" : 0,
            "name" : "Aiguille",
            "scale" : [
                0.01656247302889824,
                0.10584894567728043,
                0.02440127730369568
            ],
            "translation" : [
                0.6550207734107971,
                0.6511516571044922,
                -0.5905742645263672
            ]
        },
        {
            "mesh" : 1,
            "name" : "Wheel",
            "rotation" : [
                0,
                -0.9294313192367554,
                0,
                0.3689950704574585
            ],
            "scale" : [
                0.7500686645507812,
                0.3943963348865509,
                0.6366732120513916
            ],
            "translation" : [
                -6.17603874206543,
                -0.5712442398071289,
                21.518518447875977
            ]
        },
        {
            "children" : [
                0,
                1
            ],
            "mesh" : 2,
            "name" : "Radio",
            "rotation" : [
                0,
                0.9045644998550415,
                0,
                0.4263370633125305
            ],
            "scale" : [
                2.8359694480895996,
                1.6118934154510498,
                0.6636170148849487
            ],
            "translation" : [
                16.262855529785156,
                10.026799201965332,
                -12.3643217086792
            ]
        }
    ],
    "materials" : [
        {
            "doubleSided" : true,
            "name" : "radio-texture",
            "pbrMetallicRoughness" : {
                "baseColorTexture" : {
                    "index" : 0
                },
                "metallicFactor" : 0,
                "roughnessFactor" : 0.5
            }
        }
    ],
    "meshes" : [
        {
            "name" : "Aiguille",
            "primitives" : [
                {
                    "attributes" : {
                        "POSITION" : 0,
                        "NORMAL" : 1,
                        "TEXCOORD_0" : 2
                    },
                    "indices" : 3,
                    "material" : 0
                }
            ]
        },
        {
            "name" : "Wheel",
            "primitives" : [
                {
                    "attributes" : {
                        "POSITION" : 4,
                        "NORMAL" : 5,
                        "TEXCOORD_0" : 6
                    },
                    "indices" : 7,
                    "material" : 0
                }
            ]
        },
        {
            "name" : "Radio",
            "primitives" : [
                {
                    "attributes" : {
                        "POSITION" : 8,
                        "NORMAL" : 9,
                        "TEXCOORD_0" : 10
                    },
                    "indices" : 11,
                    "material" : 0
                }
            ]
        }
    ],
    "textures" : [
        {
            "sampler" : 0,
            "source" : 0
        }
    ],
    "images" : [
        {
            "bufferView" : 4,
            "mimeType" : "image/png",
            "name" : "Image_0"
        }
    ],
    "accessors" : [
        {
            "bufferView" : 0,
            "componentType" : 5126,
            "count" : 34,
            "max" : [
                1,
                1.6118671894073486,
                1
            ],
            "min" : [
                -1,
                -1,
                -1
            ],
            "type" : "VEC3"
        },
        {
            "bufferView" : 1,
            "componentType" : 5126,
            "count" : 34,
            "type" : "VEC3"
        },
        {
            "bufferView" : 2,
            "componentType" : 5126,
            "count" : 34,
            "type" : "VEC2"
        },
        {
            "bufferView" : 3,
            "componentType" : 5123,
            "count" : 60,
            "type" : "SCALAR"
        },
        {
            "bufferView" : 5,
            "componentType" : 5126,
            "count" : 120,
            "max" : [
                -32.930423736572266,
                3.645225763320923,
                -2.9900925159454346
            ],
            "min" : [
                -33.70988845825195,
                2.9417831897735596,
                -3.7971251010894775
            ],
            "type" : "VEC3"
        },
        {
            "bufferView" : 6,
            "componentType" : 5126,
            "count" : 120,
            "type" : "VEC3"
        },
        {
            "bufferView" : 7,
            "componentType" : 5126,
            "count" : 120,
            "type" : "VEC2"
        },
        {
            "bufferView" : 8,
            "componentType" : 5123,
            "count" : 126,
            "type" : "SCALAR"
        },
        {
            "bufferView" : 9,
            "componentType" : 5126,
            "count" : 10218,
            "max" : [
                1.0314340591430664,
                2.411316394805908,
                1
            ],
            "min" : [
                -1.032231092453003,
                -1.1713765859603882,
                -1.108805775642395
            ],
            "type" : "VEC3"
        },
        {
            "bufferView" : 10,
            "componentType" : 5126,
            "count" : 10218,
            "type" : "VEC3"
        },
        {
            "bufferView" : 11,
            "componentType" : 5126,
            "count" : 10218,
            "type" : "VEC2"
        },
        {
            "bufferView" : 12,
            "componentType" : 5123,
            "count" : 14946,
            "type" : "SCALAR"
        }
    ],
    "bufferViews" : [
        {
            "buffer" : 0,
            "byteLength" : 408,
            "byteOffset" : 0
        },
        {
            "buffer" : 0,
            "byteLength" : 408,
            "byteOffset" : 408
        },
        {
            "buffer" : 0,
            "byteLength" : 272,
            "byteOffset" : 816
        },
        {
            "buffer" : 0,
            "byteLength" : 120,
            "byteOffset" : 1088
        },
        {
            "buffer" : 0,
            "byteLength" : 531351,
            "byteOffset" : 1208
        },
        {
            "buffer" : 0,
            "byteLength" : 1440,
            "byteOffset" : 532560
        },
        {
            "buffer" : 0,
            "byteLength" : 1440,
            "byteOffset" : 534000
        },
        {
            "buffer" : 0,
            "byteLength" : 960,
            "byteOffset" : 535440
        },
        {
            "buffer" : 0,
            "byteLength" : 252,
            "byteOffset" : 536400
        },
        {
            "buffer" : 0,
            "byteLength" : 122616,
            "byteOffset" : 536652
        },
        {
            "buffer" : 0,
            "byteLength" : 122616,
            "byteOffset" : 659268
        },
        {
            "buffer" : 0,
            "byteLength" : 81744,
            "byteOffset" : 781884
        },
        {
            "buffer" : 0,
            "byteLength" : 29892,
            "byteOffset" : 863628
        }
    ],
    "samplers" : [
        {
            "magFilter" : 9729,
            "minFilter" : 9987
        }
    ],
    "buffers" : [
        {
            "byteLength" : 893520,
            "uri" : "data:application/octet-stream;base64,"
        }
    ]
}
