{
    "asset" : {
        "generator" : "Khronos glTF Blender I/O v1.7.33",
        "version" : "2.0"
    },
    "scene" : 0,
    "scenes" : [
        {
            "name" : "Scene",
            "nodes" : [
                0
            ]
        }
    ],
    "nodes" : [
        {
            "mesh" : 0,
            "name" : "Cup",
            "rotation" : [
                0.6453815698623657,
                -0.28893375396728516,
                0.28893375396728516,
                0.6453815698623657
            ],
            "scale" : [
                0.36042091250419617,
                0.36042091250419617,
                0.3604208827018738
            ],
            "translation" : [
                -9.179680824279785,
                8.754003524780273,
                -9.669544219970703
            ]
        }
    ],
    "materials" : [
        {
            "doubleSided" : true,
            "name" : "Material.012",
            "pbrMetallicRoughness" : {
                "baseColorTexture" : {
                    "index" : 0
                },
                "metallicFactor" : 0,
                "roughnessFactor" : 0.5
            }
        }
    ],
    "meshes" : [
        {
            "name" : "Cup",
            "primitives" : [
                {
                    "attributes" : {
                        "POSITION" : 0,
                        "NORMAL" : 1,
                        "TEXCOORD_0" : 2
                    },
                    "indices" : 3,
                    "material" : 0
                }
            ]
        }
    ],
    "textures" : [
        {
            "sampler" : 0,
            "source" : 0
        }
    ],
    "images" : [
        {
            "bufferView" : 4,
            "mimeType" : "image/png",
            "name" : "TASSEtest2"
        }
    ],
    "accessors" : [
        {
            "bufferView" : 0,
            "componentType" : 5126,
            "count" : 492,
            "max" : [
                1.2031868696212769,
                0.6549385786056519,
                1.6377087831497192
            ],
            "min" : [
                -1.9560281038284302,
                -3.4564647674560547,
                -1.5317984819412231
            ],
            "type" : "VEC3"
        },
        {
            "bufferView" : 1,
            "componentType" : 5126,
            "count" : 492,
            "type" : "VEC3"
        },
        {
            "bufferView" : 2,
            "componentType" : 5126,
            "count" : 492,
            "type" : "VEC2"
        },
        {
            "bufferView" : 3,
            "componentType" : 5123,
            "count" : 2010,
            "type" : "SCALAR"
        }
    ],
    "bufferViews" : [
        {
            "buffer" : 0,
            "byteLength" : 5904,
            "byteOffset" : 0
        },
        {
            "buffer" : 0,
            "byteLength" : 5904,
            "byteOffset" : 5904
        },
        {
            "buffer" : 0,
            "byteLength" : 3936,
            "byteOffset" : 11808
        },
        {
            "buffer" : 0,
            "byteLength" : 4020,
            "byteOffset" : 15744
        },
        {
            "buffer" : 0,
            "byteLength" : 1467527,
            "byteOffset" : 19764
        }
    ],
    "samplers" : [
        {
            "magFilter" : 9729,
            "minFilter" : 9987
        }
    ],
    "buffers" : [
        {
            "byteLength" : 1487292,
            "uri" : "data:application/octet-stream;base64,"
        }
    ]
}
