{
    "asset" : {
        "generator" : "Khronos glTF Blender I/O v1.8.19",
        "version" : "2.0"
    },
    "scene" : 0,
    "scenes" : [
        {
            "name" : "Scene",
            "nodes" : [
                1
            ]
        }
    ],
    "nodes" : [
        {
            "mesh" : 0,
            "name" : "TV-1-Screen",
            "translation" : [
                6.103515625e-05,
                0,
                0
            ]
        },
        {
            "children" : [
                0
            ],
            "mesh" : 1,
            "name" : "TV-1",
            "rotation" : [
                0.689737856388092,
                0,
                0,
                0.7240591645240784
            ],
            "scale" : [
                0.09575969725847244,
                0.09575968235731125,
                0.09661039710044861
            ],
            "translation" : [
                -22.298568725585938,
                -1.3800048828125,
                -49.42112731933594
            ]
        }
    ],
    "materials" : [
        {
            "doubleSided" : true,
            "name" : "TV-1",
            "pbrMetallicRoughness" : {}
        }
    ],
    "meshes" : [
        {
            "name" : "TV-1-Screen",
            "primitives" : [
                {
                    "attributes" : {
                        "POSITION" : 0,
                        "NORMAL" : 1,
                        "TEXCOORD_0" : 2
                    },
                    "indices" : 3
                }
            ]
        },
        {
            "name" : "TV-1",
            "primitives" : [
                {
                    "attributes" : {
                        "POSITION" : 4,
                        "NORMAL" : 5,
                        "TEXCOORD_0" : 6
                    },
                    "indices" : 7,
                    "material" : 0
                }
            ]
        }
    ],
    "accessors" : [
        {
            "bufferView" : 0,
            "componentType" : 5126,
            "count" : 13,
            "max" : [
                40.5185661315918,
                62.47810745239258,
                35.96337890625
            ],
            "min" : [
                35.7225227355957,
                -62.14954376220703,
                -44.31298828125
            ],
            "type" : "VEC3"
        },
        {
            "bufferView" : 1,
            "componentType" : 5126,
            "count" : 13,
            "type" : "VEC3"
        },
        {
            "bufferView" : 2,
            "componentType" : 5126,
            "count" : 13,
            "type" : "VEC2"
        },
        {
            "bufferView" : 3,
            "componentType" : 5123,
            "count" : 33,
            "type" : "SCALAR"
        },
        {
            "bufferView" : 4,
            "componentType" : 5126,
            "count" : 4639,
            "max" : [
                44.80231475830078,
                78.58587646484375,
                65.31705474853516
            ],
            "min" : [
                -46.66510009765625,
                -78.58587646484375,
                -54.83648681640625
            ],
            "type" : "VEC3"
        },
        {
            "bufferView" : 5,
            "componentType" : 5126,
            "count" : 4639,
            "type" : "VEC3"
        },
        {
            "bufferView" : 6,
            "componentType" : 5126,
            "count" : 4639,
            "type" : "VEC2"
        },
        {
            "bufferView" : 7,
            "componentType" : 5123,
            "count" : 20862,
            "type" : "SCALAR"
        }
    ],
    "bufferViews" : [
        {
            "buffer" : 0,
            "byteLength" : 156,
            "byteOffset" : 0
        },
        {
            "buffer" : 0,
            "byteLength" : 156,
            "byteOffset" : 156
        },
        {
            "buffer" : 0,
            "byteLength" : 104,
            "byteOffset" : 312
        },
        {
            "buffer" : 0,
            "byteLength" : 66,
            "byteOffset" : 416
        },
        {
            "buffer" : 0,
            "byteLength" : 55668,
            "byteOffset" : 484
        },
        {
            "buffer" : 0,
            "byteLength" : 55668,
            "byteOffset" : 56152
        },
        {
            "buffer" : 0,
            "byteLength" : 37112,
            "byteOffset" : 111820
        },
        {
            "buffer" : 0,
            "byteLength" : 41724,
            "byteOffset" : 148932
        }
    ],
    "buffers" : [
        {
            "byteLength" : 190656,
            "uri" : "data:application/octet-stream;base64,"
        }
    ]
}
