{
    "asset" : {
        "generator" : "Khronos glTF Blender I/O v1.8.19",
        "version" : "2.0"
    },
    "scene" : 0,
    "scenes" : [
        {
            "name" : "Scene",
            "nodes" : [
                1
            ]
        }
    ],
    "nodes" : [
        {
            "mesh" : 0,
            "name" : "TV-2-Screen",
            "rotation" : [
                -0.9999858736991882,
                -0.0007002984057180583,
                -0.000621541403234005,
                0.005236997734755278
            ],
            "translation" : [
                -3.0517578125e-05,
                0,
                3.6954879760742188e-06
            ]
        },
        {
            "children" : [
                0
            ],
            "mesh" : 1,
            "name" : "TV-2",
            "rotation" : [
                0.7065193057060242,
                0.0009349114261567593,
                -5.157650957698934e-05,
                0.7076931595802307
            ],
            "scale" : [
                0.06159233674407005,
                0.061592619866132736,
                0.062460895627737045
            ],
            "translation" : [
                -27.800086975097656,
                -3.56475830078125,
                -35.867889404296875
            ]
        }
    ],
    "materials" : [
        {
            "doubleSided" : true,
            "name" : "TV-3",
            "pbrMetallicRoughness" : {}
        }
    ],
    "meshes" : [
        {
            "name" : "TV-2-Screen",
            "primitives" : [
                {
                    "attributes" : {
                        "POSITION" : 0,
                        "NORMAL" : 1,
                        "TEXCOORD_0" : 2
                    },
                    "indices" : 3
                }
            ]
        },
        {
            "name" : "TV-2",
            "primitives" : [
                {
                    "attributes" : {
                        "POSITION" : 4,
                        "NORMAL" : 5,
                        "TEXCOORD_0" : 6
                    },
                    "indices" : 7,
                    "material" : 0
                }
            ]
        }
    ],
    "accessors" : [
        {
            "bufferView" : 0,
            "componentType" : 5126,
            "count" : 16,
            "max" : [
                109.95796966552734,
                52.06624221801758,
                55.60453796386719
            ],
            "min" : [
                107.5376205444336,
                -53.046897888183594,
                -38.102691650390625
            ],
            "type" : "VEC3"
        },
        {
            "bufferView" : 1,
            "componentType" : 5126,
            "count" : 16,
            "type" : "VEC3"
        },
        {
            "bufferView" : 2,
            "componentType" : 5126,
            "count" : 16,
            "type" : "VEC2"
        },
        {
            "bufferView" : 3,
            "componentType" : 5123,
            "count" : 24,
            "type" : "SCALAR"
        },
        {
            "bufferView" : 4,
            "componentType" : 5126,
            "count" : 4581,
            "max" : [
                118.19761657714844,
                100,
                75.89997863769531
            ],
            "min" : [
                -56.43342971801758,
                -100,
                -75.89997863769531
            ],
            "type" : "VEC3"
        },
        {
            "bufferView" : 5,
            "componentType" : 5126,
            "count" : 4581,
            "type" : "VEC3"
        },
        {
            "bufferView" : 6,
            "componentType" : 5126,
            "count" : 4581,
            "type" : "VEC2"
        },
        {
            "bufferView" : 7,
            "componentType" : 5123,
            "count" : 18216,
            "type" : "SCALAR"
        }
    ],
    "bufferViews" : [
        {
            "buffer" : 0,
            "byteLength" : 192,
            "byteOffset" : 0
        },
        {
            "buffer" : 0,
            "byteLength" : 192,
            "byteOffset" : 192
        },
        {
            "buffer" : 0,
            "byteLength" : 128,
            "byteOffset" : 384
        },
        {
            "buffer" : 0,
            "byteLength" : 48,
            "byteOffset" : 512
        },
        {
            "buffer" : 0,
            "byteLength" : 54972,
            "byteOffset" : 560
        },
        {
            "buffer" : 0,
            "byteLength" : 54972,
            "byteOffset" : 55532
        },
        {
            "buffer" : 0,
            "byteLength" : 36648,
            "byteOffset" : 110504
        },
        {
            "buffer" : 0,
            "byteLength" : 36432,
            "byteOffset" : 147152
        }
    ],
    "buffers" : [
        {
            "byteLength" : 183584,
            "uri" : "data:application/octet-stream;base64,"
        }
    ]
}
