{
    "asset" : {
        "generator" : "Khronos glTF Blender I/O v1.8.19",
        "version" : "2.0"
    },
    "scene" : 0,
    "scenes" : [
        {
            "name" : "Scene",
            "nodes" : [
                1
            ]
        }
    ],
    "nodes" : [
        {
            "mesh" : 0,
            "name" : "TV-3-Screen",
            "translation" : [
                -0.0001220703125,
                -3.0517578125e-05,
                0
            ]
        },
        {
            "children" : [
                0
            ],
            "mesh" : 1,
            "name" : "TV-3",
            "rotation" : [
                0.6989974975585938,
                0,
                0,
                0.7151241302490234
            ],
            "scale" : [
                0.04862726107239723,
                0.048627253621816635,
                0.05074181407690048
            ],
            "translation" : [
                -24.25031280517578,
                -1.907928466796875,
                -23.664339065551758
            ]
        }
    ],
    "materials" : [
        {
            "doubleSided" : true,
            "name" : "Material.025",
            "pbrMetallicRoughness" : {}
        }
    ],
    "meshes" : [
        {
            "name" : "TV-3-Screen",
            "primitives" : [
                {
                    "attributes" : {
                        "POSITION" : 0,
                        "NORMAL" : 1,
                        "TEXCOORD_0" : 2
                    },
                    "indices" : 3
                }
            ]
        },
        {
            "name" : "TV-3",
            "primitives" : [
                {
                    "attributes" : {
                        "POSITION" : 4,
                        "NORMAL" : 5,
                        "TEXCOORD_0" : 6
                    },
                    "indices" : 7,
                    "material" : 0
                }
            ]
        }
    ],
    "accessors" : [
        {
            "bufferView" : 0,
            "componentType" : 5126,
            "count" : 4,
            "max" : [
                100.00001525878906,
                85.08244323730469,
                38.951629638671875
            ],
            "min" : [
                100.00001525878906,
                -85.08238220214844,
                -84.38238525390625
            ],
            "type" : "VEC3"
        },
        {
            "bufferView" : 1,
            "componentType" : 5126,
            "count" : 4,
            "type" : "VEC3"
        },
        {
            "bufferView" : 2,
            "componentType" : 5126,
            "count" : 4,
            "type" : "VEC2"
        },
        {
            "bufferView" : 3,
            "componentType" : 5123,
            "count" : 6,
            "type" : "SCALAR"
        },
        {
            "bufferView" : 4,
            "componentType" : 5126,
            "count" : 6337,
            "max" : [
                104.31780242919922,
                101.72809600830078,
                103.8453140258789
            ],
            "min" : [
                -100.81942749023438,
                -101.72809600830078,
                -184.9267578125
            ],
            "type" : "VEC3"
        },
        {
            "bufferView" : 5,
            "componentType" : 5126,
            "count" : 6337,
            "type" : "VEC3"
        },
        {
            "bufferView" : 6,
            "componentType" : 5126,
            "count" : 6337,
            "type" : "VEC2"
        },
        {
            "bufferView" : 7,
            "componentType" : 5123,
            "count" : 27156,
            "type" : "SCALAR"
        }
    ],
    "bufferViews" : [
        {
            "buffer" : 0,
            "byteLength" : 48,
            "byteOffset" : 0
        },
        {
            "buffer" : 0,
            "byteLength" : 48,
            "byteOffset" : 48
        },
        {
            "buffer" : 0,
            "byteLength" : 32,
            "byteOffset" : 96
        },
        {
            "buffer" : 0,
            "byteLength" : 12,
            "byteOffset" : 128
        },
        {
            "buffer" : 0,
            "byteLength" : 76044,
            "byteOffset" : 140
        },
        {
            "buffer" : 0,
            "byteLength" : 76044,
            "byteOffset" : 76184
        },
        {
            "buffer" : 0,
            "byteLength" : 50696,
            "byteOffset" : 152228
        },
        {
            "buffer" : 0,
            "byteLength" : 54312,
            "byteOffset" : 202924
        }
    ],
    "buffers" : [
        {
            "byteLength" : 257236,
            "uri" : "data:application/octet-stream;base64,"
        }
    ]
}
