{
    "asset" : {
        "generator" : "Khronos glTF Blender I/O v1.8.19",
        "version" : "2.0"
    },
    "scene" : 0,
    "scenes" : [
        {
            "name" : "Scene",
            "nodes" : [
                1
            ]
        }
    ],
    "nodes" : [
        {
            "mesh" : 0,
            "name" : "TV-4-Screen"
        },
        {
            "children" : [
                0
            ],
            "mesh" : 1,
            "name" : "TV-4",
            "rotation" : [
                0.05803509056568146,
                -0.7064175605773926,
                0.0577578991651535,
                0.703043520450592
            ],
            "scale" : [
                6.097400188446045,
                4.716853141784668,
                5.133259296417236
            ],
            "translation" : [
                -25.88996124267578,
                8.256622314453125,
                -47.41441345214844
            ]
        }
    ],
    "materials" : [
        {
            "doubleSided" : true,
            "name" : "TV-texture",
            "pbrMetallicRoughness" : {
                "baseColorTexture" : {
                    "index" : 0
                },
                "metallicFactor" : 0,
                "roughnessFactor" : 0.5
            }
        }
    ],
    "meshes" : [
        {
            "name" : "TV-4-Screen",
            "primitives" : [
                {
                    "attributes" : {
                        "POSITION" : 0,
                        "NORMAL" : 1,
                        "TEXCOORD_0" : 2
                    },
                    "indices" : 3
                }
            ]
        },
        {
            "name" : "TV-4",
            "primitives" : [
                {
                    "attributes" : {
                        "POSITION" : 4,
                        "NORMAL" : 5,
                        "TEXCOORD_0" : 6
                    },
                    "indices" : 7,
                    "material" : 0
                }
            ]
        }
    ],
    "textures" : [
        {
            "sampler" : 0,
            "source" : 0
        }
    ],
    "images" : [
        {
            "bufferView" : 8,
            "mimeType" : "image/png",
            "name" : "TV-texture"
        }
    ],
    "accessors" : [
        {
            "bufferView" : 0,
            "componentType" : 5126,
            "count" : 40,
            "max" : [
                0.8693245053291321,
                0.8120560050010681,
                -0.9501892924308777
            ],
            "min" : [
                -0.43710941076278687,
                -0.8120573163032532,
                -1.0104248523712158
            ],
            "type" : "VEC3"
        },
        {
            "bufferView" : 1,
            "componentType" : 5126,
            "count" : 40,
            "type" : "VEC3"
        },
        {
            "bufferView" : 2,
            "componentType" : 5126,
            "count" : 40,
            "type" : "VEC2"
        },
        {
            "bufferView" : 3,
            "componentType" : 5123,
            "count" : 72,
            "type" : "SCALAR"
        },
        {
            "bufferView" : 4,
            "componentType" : 5126,
            "count" : 1625,
            "max" : [
                1,
                1.984379768371582,
                1
            ],
            "min" : [
                -1,
                -1.1572308540344238,
                -1.0689747333526611
            ],
            "type" : "VEC3"
        },
        {
            "bufferView" : 5,
            "componentType" : 5126,
            "count" : 1625,
            "type" : "VEC3"
        },
        {
            "bufferView" : 6,
            "componentType" : 5126,
            "count" : 1625,
            "type" : "VEC2"
        },
        {
            "bufferView" : 7,
            "componentType" : 5123,
            "count" : 2946,
            "type" : "SCALAR"
        }
    ],
    "bufferViews" : [
        {
            "buffer" : 0,
            "byteLength" : 480,
            "byteOffset" : 0
        },
        {
            "buffer" : 0,
            "byteLength" : 480,
            "byteOffset" : 480
        },
        {
            "buffer" : 0,
            "byteLength" : 320,
            "byteOffset" : 960
        },
        {
            "buffer" : 0,
            "byteLength" : 144,
            "byteOffset" : 1280
        },
        {
            "buffer" : 0,
            "byteLength" : 19500,
            "byteOffset" : 1424
        },
        {
            "buffer" : 0,
            "byteLength" : 19500,
            "byteOffset" : 20924
        },
        {
            "buffer" : 0,
            "byteLength" : 13000,
            "byteOffset" : 40424
        },
        {
            "buffer" : 0,
            "byteLength" : 5892,
            "byteOffset" : 53424
        },
        {
            "buffer" : 0,
            "byteLength" : 505614,
            "byteOffset" : 59316
        }
    ],
    "samplers" : [
        {
            "magFilter" : 9729,
            "minFilter" : 9987
        }
    ],
    "buffers" : [
        {
            "byteLength" : 564932,
            "uri" : "data:application/octet-stream;base64,"
        }
    ]
}
