{
    "asset" : {
        "generator" : "Khronos glTF Blender I/O v1.8.19",
        "version" : "2.0"
    },
    "scene" : 0,
    "scenes" : [
        {
            "name" : "Scene",
            "nodes" : [
                1
            ]
        }
    ],
    "nodes" : [
        {
            "mesh" : 0,
            "name" : "TV-5-Screen",
            "translation" : [
                0.011810302734375,
                -0.030517578125,
                1.8470344543457031
            ]
        },
        {
            "children" : [
                0
            ],
            "mesh" : 1,
            "name" : "TV-5",
            "rotation" : [
                0.6869898438453674,
                -0.0032652723602950573,
                -0.014903855510056019,
                0.7265068292617798
            ],
            "scale" : [
                0.06830962002277374,
                0.06830961257219315,
                0.06830960512161255
            ],
            "translation" : [
                -26.643959045410156,
                6.3958740234375,
                -36.781097412109375
            ]
        }
    ],
    "materials" : [
        {
            "doubleSided" : true,
            "name" : "TV-4",
            "pbrMetallicRoughness" : {}
        }
    ],
    "meshes" : [
        {
            "name" : "TV-5-Screen",
            "primitives" : [
                {
                    "attributes" : {
                        "POSITION" : 0,
                        "NORMAL" : 1,
                        "TEXCOORD_0" : 2
                    },
                    "indices" : 3
                }
            ]
        },
        {
            "name" : "TV-5",
            "primitives" : [
                {
                    "attributes" : {
                        "POSITION" : 4,
                        "NORMAL" : 5,
                        "TEXCOORD_0" : 6
                    },
                    "indices" : 7,
                    "material" : 0
                }
            ]
        }
    ],
    "accessors" : [
        {
            "bufferView" : 0,
            "componentType" : 5126,
            "count" : 10,
            "max" : [
                58.44670104980469,
                50.067543029785156,
                22.649635314941406
            ],
            "min" : [
                53.86676788330078,
                -27.734371185302734,
                -45.79603576660156
            ],
            "type" : "VEC3"
        },
        {
            "bufferView" : 1,
            "componentType" : 5126,
            "count" : 10,
            "type" : "VEC3"
        },
        {
            "bufferView" : 2,
            "componentType" : 5126,
            "count" : 10,
            "type" : "VEC2"
        },
        {
            "bufferView" : 3,
            "componentType" : 5123,
            "count" : 18,
            "type" : "SCALAR"
        },
        {
            "bufferView" : 4,
            "componentType" : 5126,
            "count" : 2801,
            "max" : [
                66.14593505859375,
                78.33383178710938,
                79.08789825439453
            ],
            "min" : [
                -57.542137145996094,
                -62.7805290222168,
                -97.90350341796875
            ],
            "type" : "VEC3"
        },
        {
            "bufferView" : 5,
            "componentType" : 5126,
            "count" : 2801,
            "type" : "VEC3"
        },
        {
            "bufferView" : 6,
            "componentType" : 5126,
            "count" : 2801,
            "type" : "VEC2"
        },
        {
            "bufferView" : 7,
            "componentType" : 5123,
            "count" : 11244,
            "type" : "SCALAR"
        }
    ],
    "bufferViews" : [
        {
            "buffer" : 0,
            "byteLength" : 120,
            "byteOffset" : 0
        },
        {
            "buffer" : 0,
            "byteLength" : 120,
            "byteOffset" : 120
        },
        {
            "buffer" : 0,
            "byteLength" : 80,
            "byteOffset" : 240
        },
        {
            "buffer" : 0,
            "byteLength" : 36,
            "byteOffset" : 320
        },
        {
            "buffer" : 0,
            "byteLength" : 33612,
            "byteOffset" : 356
        },
        {
            "buffer" : 0,
            "byteLength" : 33612,
            "byteOffset" : 33968
        },
        {
            "buffer" : 0,
            "byteLength" : 22408,
            "byteOffset" : 67580
        },
        {
            "buffer" : 0,
            "byteLength" : 22488,
            "byteOffset" : 89988
        }
    ],
    "buffers" : [
        {
            "byteLength" : 112476,
            "uri" : "data:application/octet-stream;base64,"
        }
    ]
}
