{
    "asset" : {
        "generator" : "Khronos glTF Blender I/O v1.7.33",
        "version" : "2.0"
    },
    "extensionsUsed" : [
        "KHR_materials_unlit"
    ],
    "scene" : 0,
    "scenes" : [
        {
            "name" : "Scene",
            "nodes" : [
                2
            ]
        }
    ],
    "nodes" : [
        {
            "mesh" : 0,
            "name" : "Cube_1_4"
        },
        {
            "mesh" : 1,
            "name" : "Screen"
        },
        {
            "children" : [
                0,
                1
            ],
            "name" : "TV1",
            "rotation" : [
                0.07166653126478195,
                0.7034655809402466,
                -0.7034657001495361,
                0.07166652381420135
            ],
            "scale" : [
                0.027647458016872406,
                0.027647458016872406,
                0.027647458016872406
            ],
            "translation" : [
                17.25002670288086,
                10.877846717834473,
                0.8728489875793457
            ]
        }
    ],
    "materials" : [
        {
            "doubleSided" : true,
            "extensions" : {
                "KHR_materials_unlit" : {}
            },
            "name" : "Material.001",
            "pbrMetallicRoughness" : {
                "metallicFactor" : 0,
                "roughnessFactor" : 0.9
            }
        },
        {
            "doubleSided" : true,
            "emissiveFactor" : [
                1,
                1,
                1
            ],
            "name" : "Screens",
            "pbrMetallicRoughness" : {}
        }
    ],
    "meshes" : [
        {
            "name" : "Mesh.006",
            "primitives" : [
                {
                    "attributes" : {
                        "POSITION" : 0,
                        "NORMAL" : 1,
                        "TEXCOORD_0" : 2
                    },
                    "indices" : 3,
                    "material" : 0
                }
            ]
        },
        {
            "name" : "Mesh.024",
            "primitives" : [
                {
                    "attributes" : {
                        "POSITION" : 4,
                        "NORMAL" : 5,
                        "TEXCOORD_0" : 6
                    },
                    "indices" : 7,
                    "material" : 1
                }
            ]
        }
    ],
    "accessors" : [
        {
            "bufferView" : 0,
            "componentType" : 5126,
            "count" : 6952,
            "max" : [
                104.31780242919922,
                101.72809600830078,
                103.8453140258789
            ],
            "min" : [
                -100.81942749023438,
                -101.72809600830078,
                -184.9267578125
            ],
            "type" : "VEC3"
        },
        {
            "bufferView" : 1,
            "componentType" : 5126,
            "count" : 6952,
            "type" : "VEC3"
        },
        {
            "bufferView" : 2,
            "componentType" : 5126,
            "count" : 6952,
            "type" : "VEC2"
        },
        {
            "bufferView" : 3,
            "componentType" : 5123,
            "count" : 27156,
            "type" : "SCALAR"
        },
        {
            "bufferView" : 4,
            "componentType" : 5126,
            "count" : 90,
            "max" : [
                105.1222915649414,
                81.8609390258789,
                25
            ],
            "min" : [
                100,
                -81.8609390258789,
                -75
            ],
            "type" : "VEC3"
        },
        {
            "bufferView" : 5,
            "componentType" : 5126,
            "count" : 90,
            "type" : "VEC3"
        },
        {
            "bufferView" : 6,
            "componentType" : 5126,
            "count" : 90,
            "type" : "VEC2"
        },
        {
            "bufferView" : 7,
            "componentType" : 5123,
            "count" : 408,
            "type" : "SCALAR"
        }
    ],
    "bufferViews" : [
        {
            "buffer" : 0,
            "byteLength" : 83424,
            "byteOffset" : 0
        },
        {
            "buffer" : 0,
            "byteLength" : 83424,
            "byteOffset" : 83424
        },
        {
            "buffer" : 0,
            "byteLength" : 55616,
            "byteOffset" : 166848
        },
        {
            "buffer" : 0,
            "byteLength" : 54312,
            "byteOffset" : 222464
        },
        {
            "buffer" : 0,
            "byteLength" : 1080,
            "byteOffset" : 276776
        },
        {
            "buffer" : 0,
            "byteLength" : 1080,
            "byteOffset" : 277856
        },
        {
            "buffer" : 0,
            "byteLength" : 720,
            "byteOffset" : 278936
        },
        {
            "buffer" : 0,
            "byteLength" : 816,
            "byteOffset" : 279656
        }
    ],
    "buffers" : [
        {
            "byteLength" : 280472,
            "uri" : "data:application/octet-stream;base64,"
        }
    ]
}
