{
    "asset" : {
        "generator" : "Khronos glTF Blender I/O v1.7.33",
        "version" : "2.0"
    },
    "extensionsUsed" : [
        "KHR_materials_unlit"
    ],
    "scene" : 0,
    "scenes" : [
        {
            "name" : "Scene",
            "nodes" : [
                2
            ]
        }
    ],
    "nodes" : [
        {
            "mesh" : 0,
            "name" : "Cube_1",
            "translation" : [
                0,
                0,
                -32.101097106933594
            ]
        },
        {
            "mesh" : 1,
            "name" : "ScreenTV2",
            "translation" : [
                0,
                0,
                -32.101097106933594
            ]
        },
        {
            "children" : [
                0,
                1
            ],
            "name" : "TV2",
            "rotation" : [
                0.08562265336513519,
                0.7019036412239075,
                -0.7019037008285522,
                0.08562266081571579
            ],
            "scale" : [
                0.027647458016872406,
                0.027647458016872406,
                0.027647458016872406
            ],
            "translation" : [
                15.833123207092285,
                16.067520141601562,
                7.27750301361084
            ]
        }
    ],
    "materials" : [
        {
            "doubleSided" : true,
            "extensions" : {
                "KHR_materials_unlit" : {}
            },
            "name" : "Material.001",
            "pbrMetallicRoughness" : {
                "metallicFactor" : 0,
                "roughnessFactor" : 0.9
            }
        },
        {
            "doubleSided" : true,
            "emissiveFactor" : [
                1,
                1,
                1
            ],
            "name" : "Screens",
            "pbrMetallicRoughness" : {}
        }
    ],
    "meshes" : [
        {
            "name" : "Mesh.001",
            "primitives" : [
                {
                    "attributes" : {
                        "POSITION" : 0,
                        "NORMAL" : 1,
                        "TEXCOORD_0" : 2
                    },
                    "indices" : 3,
                    "material" : 0
                }
            ]
        },
        {
            "name" : "ScreenTV2",
            "primitives" : [
                {
                    "attributes" : {
                        "POSITION" : 4,
                        "NORMAL" : 5,
                        "TEXCOORD_0" : 6
                    },
                    "indices" : 7,
                    "material" : 0
                },
                {
                    "attributes" : {
                        "POSITION" : 8,
                        "NORMAL" : 9,
                        "TEXCOORD_0" : 10
                    },
                    "indices" : 11,
                    "material" : 1
                }
            ]
        }
    ],
    "accessors" : [
        {
            "bufferView" : 0,
            "componentType" : 5126,
            "count" : 4700,
            "max" : [
                44.80231475830078,
                78.58587646484375,
                65.31705474853516
            ],
            "min" : [
                -46.66510009765625,
                -78.58587646484375,
                -54.83648681640625
            ],
            "type" : "VEC3"
        },
        {
            "bufferView" : 1,
            "componentType" : 5126,
            "count" : 4700,
            "type" : "VEC3"
        },
        {
            "bufferView" : 2,
            "componentType" : 5126,
            "count" : 4700,
            "type" : "VEC2"
        },
        {
            "bufferView" : 3,
            "componentType" : 5123,
            "count" : 20820,
            "type" : "SCALAR"
        },
        {
            "bufferView" : 4,
            "componentType" : 5126,
            "count" : 16,
            "max" : [
                36.37409591674805,
                62.47810745239258,
                35.96337890625
            ],
            "min" : [
                35.7225227355957,
                62.149383544921875,
                -17.55419921875
            ],
            "type" : "VEC3"
        },
        {
            "bufferView" : 5,
            "componentType" : 5126,
            "count" : 16,
            "type" : "VEC3"
        },
        {
            "bufferView" : 6,
            "componentType" : 5126,
            "count" : 16,
            "type" : "VEC2"
        },
        {
            "bufferView" : 7,
            "componentType" : 5123,
            "count" : 42,
            "type" : "SCALAR"
        },
        {
            "bufferView" : 8,
            "componentType" : 5126,
            "count" : 484,
            "max" : [
                45.896697998046875,
                62.188438415527344,
                35.74736404418945
            ],
            "min" : [
                35.97824478149414,
                -62.188438415527344,
                -44.09089279174805
            ],
            "type" : "VEC3"
        },
        {
            "bufferView" : 9,
            "componentType" : 5126,
            "count" : 484,
            "type" : "VEC3"
        },
        {
            "bufferView" : 10,
            "componentType" : 5126,
            "count" : 484,
            "type" : "VEC2"
        },
        {
            "bufferView" : 11,
            "componentType" : 5123,
            "count" : 2514,
            "type" : "SCALAR"
        }
    ],
    "bufferViews" : [
        {
            "buffer" : 0,
            "byteLength" : 56400,
            "byteOffset" : 0
        },
        {
            "buffer" : 0,
            "byteLength" : 56400,
            "byteOffset" : 56400
        },
        {
            "buffer" : 0,
            "byteLength" : 37600,
            "byteOffset" : 112800
        },
        {
            "buffer" : 0,
            "byteLength" : 41640,
            "byteOffset" : 150400
        },
        {
            "buffer" : 0,
            "byteLength" : 192,
            "byteOffset" : 192040
        },
        {
            "buffer" : 0,
            "byteLength" : 192,
            "byteOffset" : 192232
        },
        {
            "buffer" : 0,
            "byteLength" : 128,
            "byteOffset" : 192424
        },
        {
            "buffer" : 0,
            "byteLength" : 84,
            "byteOffset" : 192552
        },
        {
            "buffer" : 0,
            "byteLength" : 5808,
            "byteOffset" : 192636
        },
        {
            "buffer" : 0,
            "byteLength" : 5808,
            "byteOffset" : 198444
        },
        {
            "buffer" : 0,
            "byteLength" : 3872,
            "byteOffset" : 204252
        },
        {
            "buffer" : 0,
            "byteLength" : 5028,
            "byteOffset" : 208124
        }
    ],
    "buffers" : [
        {
            "byteLength" : 213152,
            "uri" : "data:application/octet-stream;base64,"
        }
    ]
}
