{
    "asset" : {
        "generator" : "Khronos glTF Blender I/O v1.8.19",
        "version" : "2.0"
    },
    "extensionsUsed" : [
        "KHR_materials_unlit"
    ],
    "scene" : 0,
    "scenes" : [
        {
            "name" : "Scene",
            "nodes" : [
                2
            ]
        }
    ],
    "nodes" : [
        {
            "mesh" : 0,
            "name" : "Screen"
        },
        {
            "mesh" : 1,
            "name" : "TV2.001"
        },
        {
            "children" : [
                0,
                1
            ],
            "name" : "TV2",
            "rotation" : [
                0,
                -0.7071067094802856,
                0.7071068286895752,
                5.338507236274381e-08
            ],
            "scale" : [
                0.027647458016872406,
                0.027647458016872406,
                0.027647458016872406
            ],
            "translation" : [
                17.3502140045166,
                10.137186050415039,
                -5.3399577140808105
            ]
        }
    ],
    "materials" : [
        {
            "doubleSided" : true,
            "emissiveFactor" : [
                1,
                1,
                1
            ],
            "name" : "Screens",
            "pbrMetallicRoughness" : {}
        },
        {
            "doubleSided" : true,
            "extensions" : {
                "KHR_materials_unlit" : {}
            },
            "name" : "Material.001",
            "pbrMetallicRoughness" : {
                "metallicFactor" : 0,
                "roughnessFactor" : 0.9
            }
        }
    ],
    "meshes" : [
        {
            "name" : "Mesh.001",
            "primitives" : [
                {
                    "attributes" : {
                        "POSITION" : 0,
                        "NORMAL" : 1,
                        "TEXCOORD_0" : 2
                    },
                    "indices" : 3,
                    "material" : 0
                }
            ]
        },
        {
            "name" : "Mesh.007",
            "primitives" : [
                {
                    "attributes" : {
                        "POSITION" : 4,
                        "NORMAL" : 5,
                        "TEXCOORD_0" : 6
                    },
                    "indices" : 7,
                    "material" : 1
                }
            ]
        }
    ],
    "accessors" : [
        {
            "bufferView" : 0,
            "componentType" : 5126,
            "count" : 780,
            "max" : [
                111.0864028930664,
                52.19001388549805,
                37.80615997314453
            ],
            "min" : [
                107.5376205444336,
                -52.19001388549805,
                -55.38597106933594
            ],
            "type" : "VEC3"
        },
        {
            "bufferView" : 1,
            "componentType" : 5126,
            "count" : 780,
            "type" : "VEC3"
        },
        {
            "bufferView" : 2,
            "componentType" : 5126,
            "count" : 780,
            "type" : "VEC2"
        },
        {
            "bufferView" : 3,
            "componentType" : 5123,
            "count" : 1824,
            "type" : "SCALAR"
        },
        {
            "bufferView" : 4,
            "componentType" : 5126,
            "count" : 11272,
            "max" : [
                118.19880676269531,
                100,
                75.90371704101562
            ],
            "min" : [
                -56.43342971801758,
                -100,
                -75.89997863769531
            ],
            "type" : "VEC3"
        },
        {
            "bufferView" : 5,
            "componentType" : 5126,
            "count" : 11272,
            "type" : "VEC3"
        },
        {
            "bufferView" : 6,
            "componentType" : 5126,
            "count" : 11272,
            "type" : "VEC2"
        },
        {
            "bufferView" : 7,
            "componentType" : 5123,
            "count" : 18216,
            "type" : "SCALAR"
        }
    ],
    "bufferViews" : [
        {
            "buffer" : 0,
            "byteLength" : 9360,
            "byteOffset" : 0
        },
        {
            "buffer" : 0,
            "byteLength" : 9360,
            "byteOffset" : 9360
        },
        {
            "buffer" : 0,
            "byteLength" : 6240,
            "byteOffset" : 18720
        },
        {
            "buffer" : 0,
            "byteLength" : 3648,
            "byteOffset" : 24960
        },
        {
            "buffer" : 0,
            "byteLength" : 135264,
            "byteOffset" : 28608
        },
        {
            "buffer" : 0,
            "byteLength" : 135264,
            "byteOffset" : 163872
        },
        {
            "buffer" : 0,
            "byteLength" : 90176,
            "byteOffset" : 299136
        },
        {
            "buffer" : 0,
            "byteLength" : 36432,
            "byteOffset" : 389312
        }
    ],
    "buffers" : [
        {
            "byteLength" : 425744,
            "uri" : "data:application/octet-stream;base64,"
        }
    ]
}
