{
    "asset" : {
        "generator" : "Khronos glTF Blender I/O v1.8.19",
        "version" : "2.0"
    },
    "extensionsUsed" : [
        "KHR_materials_unlit"
    ],
    "scene" : 0,
    "scenes" : [
        {
            "name" : "Scene",
            "nodes" : [
                2
            ]
        }
    ],
    "nodes" : [
        {
            "mesh" : 0,
            "name" : "Screen3",
            "rotation" : [
                -0.5011869072914124,
                -0.5011870265007019,
                -0.49881014227867126,
                0.4988102614879608
            ],
            "scale" : [
                28.801990509033203,
                36.169677734375,
                45.2959098815918
            ],
            "translation" : [
                -71.17434692382812,
                0.0255126953125,
                -29.266891479492188
            ]
        },
        {
            "children" : [
                0
            ],
            "mesh" : 1,
            "name" : "TV3.001",
            "rotation" : [
                0,
                0,
                1,
                -4.371138828673793e-08
            ],
            "translation" : [
                37.06705856323242,
                -369.9052429199219,
                -165.40980529785156
            ]
        },
        {
            "children" : [
                1
            ],
            "name" : "TV3",
            "rotation" : [
                0,
                -0.5896885991096497,
                0.8076306581497192,
                4.452025237355883e-08
            ],
            "scale" : [
                0.027647458016872406,
                0.027647458016872406,
                0.027647458016872406
            ],
            "translation" : [
                16.990293502807617,
                8.075180053710938,
                -10.650866508483887
            ]
        }
    ],
    "materials" : [
        {
            "doubleSided" : true,
            "extensions" : {
                "KHR_materials_unlit" : {}
            },
            "name" : "Material.001",
            "pbrMetallicRoughness" : {
                "metallicFactor" : 0,
                "roughnessFactor" : 0.9
            }
        }
    ],
    "meshes" : [
        {
            "name" : "Screen3",
            "primitives" : [
                {
                    "attributes" : {
                        "POSITION" : 0,
                        "NORMAL" : 1,
                        "TEXCOORD_0" : 2
                    },
                    "indices" : 3
                }
            ]
        },
        {
            "name" : "TV3",
            "primitives" : [
                {
                    "attributes" : {
                        "POSITION" : 4,
                        "NORMAL" : 5,
                        "TEXCOORD_0" : 6
                    },
                    "indices" : 7,
                    "material" : 0
                }
            ]
        }
    ],
    "accessors" : [
        {
            "bufferView" : 0,
            "componentType" : 5126,
            "count" : 4,
            "max" : [
                1,
                0,
                1
            ],
            "min" : [
                -1,
                0,
                -1
            ],
            "type" : "VEC3"
        },
        {
            "bufferView" : 1,
            "componentType" : 5126,
            "count" : 4,
            "type" : "VEC3"
        },
        {
            "bufferView" : 2,
            "componentType" : 5126,
            "count" : 4,
            "type" : "VEC2"
        },
        {
            "bufferView" : 3,
            "componentType" : 5123,
            "count" : 6,
            "type" : "SCALAR"
        },
        {
            "bufferView" : 4,
            "componentType" : 5126,
            "count" : 20299,
            "max" : [
                50.28221893310547,
                57.28455352783203,
                66.94482421875
            ],
            "min" : [
                -76.55204010009766,
                -57.28187561035156,
                -69.50048828125
            ],
            "type" : "VEC3"
        },
        {
            "bufferView" : 5,
            "componentType" : 5126,
            "count" : 20299,
            "type" : "VEC3"
        },
        {
            "bufferView" : 6,
            "componentType" : 5126,
            "count" : 20299,
            "type" : "VEC2"
        },
        {
            "bufferView" : 7,
            "componentType" : 5123,
            "count" : 44478,
            "type" : "SCALAR"
        }
    ],
    "bufferViews" : [
        {
            "buffer" : 0,
            "byteLength" : 48,
            "byteOffset" : 0
        },
        {
            "buffer" : 0,
            "byteLength" : 48,
            "byteOffset" : 48
        },
        {
            "buffer" : 0,
            "byteLength" : 32,
            "byteOffset" : 96
        },
        {
            "buffer" : 0,
            "byteLength" : 12,
            "byteOffset" : 128
        },
        {
            "buffer" : 0,
            "byteLength" : 243588,
            "byteOffset" : 140
        },
        {
            "buffer" : 0,
            "byteLength" : 243588,
            "byteOffset" : 243728
        },
        {
            "buffer" : 0,
            "byteLength" : 162392,
            "byteOffset" : 487316
        },
        {
            "buffer" : 0,
            "byteLength" : 88956,
            "byteOffset" : 649708
        }
    ],
    "buffers" : [
        {
            "byteLength" : 738664,
            "uri" : "data:application/octet-stream;base64,"
        }
    ]
}
