{
    "asset" : {
        "generator" : "Khronos glTF Blender I/O v1.8.19",
        "version" : "2.0"
    },
    "extensionsUsed" : [
        "KHR_materials_unlit"
    ],
    "scene" : 0,
    "scenes" : [
        {
            "name" : "Scene",
            "nodes" : [
                2
            ]
        }
    ],
    "nodes" : [
        {
            "mesh" : 0,
            "name" : "Screen2",
            "rotation" : [
                0.5047740936279297,
                -0.4951798915863037,
                0.5047741532325745,
                0.4951797425746918
            ],
            "scale" : [
                90.57901000976562,
                85.95169830322266,
                115.81218719482422
            ],
            "translation" : [
                96.9041748046875,
                -2.877349853515625,
                -76.73829650878906
            ]
        },
        {
            "mesh" : 1,
            "name" : "TV4.001",
            "translation" : [
                0,
                0,
                -68.55986022949219
            ]
        },
        {
            "children" : [
                0,
                1
            ],
            "name" : "TV4",
            "rotation" : [
                0.02422477677464485,
                -0.7066917419433594,
                0.7066916823387146,
                0.02422477677464485
            ],
            "scale" : [
                0.027647458016872406,
                0.027647458016872406,
                0.027647458016872406
            ],
            "translation" : [
                17.213321685791016,
                10.055789947509766,
                7.045315265655518
            ]
        }
    ],
    "materials" : [
        {
            "doubleSided" : true,
            "extensions" : {
                "KHR_materials_unlit" : {}
            },
            "name" : "Material.001",
            "pbrMetallicRoughness" : {
                "metallicFactor" : 0,
                "roughnessFactor" : 0.9
            }
        }
    ],
    "meshes" : [
        {
            "name" : "Screen2",
            "primitives" : [
                {
                    "attributes" : {
                        "POSITION" : 0,
                        "NORMAL" : 1,
                        "TEXCOORD_0" : 2
                    },
                    "indices" : 3
                }
            ]
        },
        {
            "name" : "Mesh.004",
            "primitives" : [
                {
                    "attributes" : {
                        "POSITION" : 4,
                        "NORMAL" : 5,
                        "TEXCOORD_0" : 6
                    },
                    "indices" : 7,
                    "material" : 0
                }
            ]
        }
    ],
    "accessors" : [
        {
            "bufferView" : 0,
            "componentType" : 5126,
            "count" : 4,
            "max" : [
                1,
                0,
                1
            ],
            "min" : [
                -1,
                0,
                -1
            ],
            "type" : "VEC3"
        },
        {
            "bufferView" : 1,
            "componentType" : 5126,
            "count" : 4,
            "type" : "VEC3"
        },
        {
            "bufferView" : 2,
            "componentType" : 5126,
            "count" : 4,
            "type" : "VEC2"
        },
        {
            "bufferView" : 3,
            "componentType" : 5123,
            "count" : 6,
            "type" : "SCALAR"
        },
        {
            "bufferView" : 4,
            "componentType" : 5126,
            "count" : 11756,
            "max" : [
                122.32997131347656,
                138.5934295654297,
                139.49620056152344
            ],
            "min" : [
                -127.41397094726562,
                -138.5934295654297,
                -117.11692810058594
            ],
            "type" : "VEC3"
        },
        {
            "bufferView" : 5,
            "componentType" : 5126,
            "count" : 11756,
            "type" : "VEC3"
        },
        {
            "bufferView" : 6,
            "componentType" : 5126,
            "count" : 11756,
            "type" : "VEC2"
        },
        {
            "bufferView" : 7,
            "componentType" : 5123,
            "count" : 20820,
            "type" : "SCALAR"
        }
    ],
    "bufferViews" : [
        {
            "buffer" : 0,
            "byteLength" : 48,
            "byteOffset" : 0
        },
        {
            "buffer" : 0,
            "byteLength" : 48,
            "byteOffset" : 48
        },
        {
            "buffer" : 0,
            "byteLength" : 32,
            "byteOffset" : 96
        },
        {
            "buffer" : 0,
            "byteLength" : 12,
            "byteOffset" : 128
        },
        {
            "buffer" : 0,
            "byteLength" : 141072,
            "byteOffset" : 140
        },
        {
            "buffer" : 0,
            "byteLength" : 141072,
            "byteOffset" : 141212
        },
        {
            "buffer" : 0,
            "byteLength" : 94048,
            "byteOffset" : 282284
        },
        {
            "buffer" : 0,
            "byteLength" : 41640,
            "byteOffset" : 376332
        }
    ],
    "buffers" : [
        {
            "byteLength" : 417972,
            "uri" : "data:application/octet-stream;base64,"
        }
    ]
}
