{
    "asset" : {
        "generator" : "Khronos glTF Blender I/O v1.8.19",
        "version" : "2.0"
    },
    "extensionsUsed" : [
        "KHR_materials_unlit"
    ],
    "scene" : 0,
    "scenes" : [
        {
            "name" : "Scene",
            "nodes" : [
                2
            ]
        }
    ],
    "nodes" : [
        {
            "mesh" : 0,
            "name" : "TV5.001",
            "translation" : [
                -6.103515625e-05,
                9.1552734375e-05,
                0
            ]
        },
        {
            "children" : [
                0
            ],
            "mesh" : 1,
            "name" : "Screen5"
        },
        {
            "children" : [
                1
            ],
            "name" : "TV5",
            "rotation" : [
                0.15529483556747437,
                -0.6898431181907654,
                0.6898431181907654,
                0.15529483556747437
            ],
            "scale" : [
                0.027647458016872406,
                0.027647458016872406,
                0.027647458016872406
            ],
            "translation" : [
                16.386274337768555,
                14.398963928222656,
                -6.351959705352783
            ]
        }
    ],
    "materials" : [
        {
            "doubleSided" : true,
            "extensions" : {
                "KHR_materials_unlit" : {}
            },
            "name" : "Material.001",
            "pbrMetallicRoughness" : {
                "metallicFactor" : 0,
                "roughnessFactor" : 0.9
            }
        },
        {
            "doubleSided" : true,
            "emissiveFactor" : [
                1,
                1,
                1
            ],
            "name" : "Screens",
            "pbrMetallicRoughness" : {}
        }
    ],
    "meshes" : [
        {
            "name" : "TV5",
            "primitives" : [
                {
                    "attributes" : {
                        "POSITION" : 0,
                        "NORMAL" : 1,
                        "TEXCOORD_0" : 2
                    },
                    "indices" : 3,
                    "material" : 0
                },
                {
                    "attributes" : {
                        "POSITION" : 4,
                        "NORMAL" : 5,
                        "TEXCOORD_0" : 6
                    },
                    "indices" : 7,
                    "material" : 1
                }
            ]
        },
        {
            "name" : "Screen5",
            "primitives" : [
                {
                    "attributes" : {
                        "POSITION" : 8,
                        "NORMAL" : 9,
                        "TEXCOORD_0" : 10
                    },
                    "indices" : 11,
                    "material" : 1
                }
            ]
        }
    ],
    "accessors" : [
        {
            "bufferView" : 0,
            "componentType" : 5126,
            "count" : 7141,
            "max" : [
                66.14549255371094,
                78.33291625976562,
                79.087890625
            ],
            "min" : [
                -57.542137145996094,
                -62.7805290222168,
                -97.90350341796875
            ],
            "type" : "VEC3"
        },
        {
            "bufferView" : 1,
            "componentType" : 5126,
            "count" : 7141,
            "type" : "VEC3"
        },
        {
            "bufferView" : 2,
            "componentType" : 5126,
            "count" : 7141,
            "type" : "VEC2"
        },
        {
            "bufferView" : 3,
            "componentType" : 5123,
            "count" : 11244,
            "type" : "SCALAR"
        },
        {
            "bufferView" : 4,
            "componentType" : 5126,
            "count" : 8,
            "max" : [
                61.370094299316406,
                29.642337799072266,
                -33.68623352050781
            ],
            "min" : [
                59.23781967163086,
                11.168956756591797,
                -40.03082275390625
            ],
            "type" : "VEC3"
        },
        {
            "bufferView" : 5,
            "componentType" : 5126,
            "count" : 8,
            "type" : "VEC3"
        },
        {
            "bufferView" : 6,
            "componentType" : 5126,
            "count" : 8,
            "type" : "VEC2"
        },
        {
            "bufferView" : 7,
            "componentType" : 5123,
            "count" : 12,
            "type" : "SCALAR"
        },
        {
            "bufferView" : 8,
            "componentType" : 5126,
            "count" : 425,
            "max" : [
                65.6346435546875,
                50.06753921508789,
                22.65045928955078
            ],
            "min" : [
                53.86676788330078,
                -27.734371185302734,
                -45.79603576660156
            ],
            "type" : "VEC3"
        },
        {
            "bufferView" : 9,
            "componentType" : 5126,
            "count" : 425,
            "type" : "VEC3"
        },
        {
            "bufferView" : 10,
            "componentType" : 5126,
            "count" : 425,
            "type" : "VEC2"
        },
        {
            "bufferView" : 11,
            "componentType" : 5123,
            "count" : 696,
            "type" : "SCALAR"
        }
    ],
    "bufferViews" : [
        {
            "buffer" : 0,
            "byteLength" : 85692,
            "byteOffset" : 0
        },
        {
            "buffer" : 0,
            "byteLength" : 85692,
            "byteOffset" : 85692
        },
        {
            "buffer" : 0,
            "byteLength" : 57128,
            "byteOffset" : 171384
        },
        {
            "buffer" : 0,
            "byteLength" : 22488,
            "byteOffset" : 228512
        },
        {
            "buffer" : 0,
            "byteLength" : 96,
            "byteOffset" : 251000
        },
        {
            "buffer" : 0,
            "byteLength" : 96,
            "byteOffset" : 251096
        },
        {
            "buffer" : 0,
            "byteLength" : 64,
            "byteOffset" : 251192
        },
        {
            "buffer" : 0,
            "byteLength" : 24,
            "byteOffset" : 251256
        },
        {
            "buffer" : 0,
            "byteLength" : 5100,
            "byteOffset" : 251280
        },
        {
            "buffer" : 0,
            "byteLength" : 5100,
            "byteOffset" : 256380
        },
        {
            "buffer" : 0,
            "byteLength" : 3400,
            "byteOffset" : 261480
        },
        {
            "buffer" : 0,
            "byteLength" : 1392,
            "byteOffset" : 264880
        }
    ],
    "buffers" : [
        {
            "byteLength" : 266272,
            "uri" : "data:application/octet-stream;base64,"
        }
    ]
}
