<svg width="36" height="36" viewBox="0 0 36 36" fill="none" xmlns="http://www.w3.org/2000/svg">
<circle cx="18" cy="18" r="17" stroke="black" stroke-width="2"/>
<path d="M21.0365 8.97839C21.0365 9.4127 20.9571 9.99 20.7982 10.7103C20.6499 11.42 20.4592 12.2569 20.2262 13.2208C20.0037 14.1318 19.7495 15.2705 19.4635 16.637C19.1775 17.9929 18.8756 19.6718 18.5578 21.6738H17.3343C17.0166 19.6506 16.7147 17.9664 16.4287 16.6211C16.1427 15.2758 15.8884 14.1477 15.666 13.2367C15.4647 12.3999 15.2793 11.5842 15.1099 10.7898C14.9404 9.98471 14.8556 9.38092 14.8556 8.97839C14.8556 8.16275 15.1575 7.46892 15.7613 6.89691C16.3651 6.31431 17.0907 6.023 17.9381 6.023C18.775 6.023 19.5006 6.31431 20.115 6.89691C20.7293 7.46892 21.0365 8.16275 21.0365 8.97839ZM21.0047 26.5359C21.0047 27.341 20.6976 28.0348 20.0832 28.6174C19.4794 29.1894 18.7697 29.4754 17.954 29.4754C17.1278 29.4754 16.4075 29.1894 15.7931 28.6174C15.1893 28.0348 14.8874 27.341 14.8874 26.5359C14.8874 25.7309 15.1893 25.0371 15.7931 24.4545C16.4075 23.8613 17.1278 23.5647 17.954 23.5647C18.7697 23.5647 19.4794 23.8613 20.0832 24.4545C20.6976 25.0371 21.0047 25.7309 21.0047 26.5359Z" fill="black"/>
</svg>
