<svg width="1440" height="228" viewBox="0 0 1440 228" fill="none" xmlns="http://www.w3.org/2000/svg">
<path opacity="0.5" d="M-71 129.946H-70.2243V129.172H-71V129.946ZM-68.673 129.946H-67.1216V129.172H-68.673V129.946ZM-65.5702 129.946H-64.0189V129.172H-65.5702V129.946ZM-62.4675 129.946H-60.9162V129.172H-62.4675V129.946ZM-59.3648 129.946H-57.8134V129.172H-59.3648V129.946ZM-56.2621 129.946H-54.7107V129.172H-56.2621V129.946ZM-53.1593 129.946H-51.608V129.172H-53.1593V129.946ZM-50.0566 129.946H-48.5053V129.172H-50.0566V129.946ZM-46.9539 129.946H-45.4025V129.172H-46.9539V129.946ZM-43.8512 129.946H-42.2998V129.172H-43.8512V129.946ZM-40.7485 129.946H-39.1971V129.172H-40.7485V129.946ZM-37.6457 129.946H-36.0944V129.172H-37.6457V129.946ZM-34.543 129.946H-32.9916V129.172H-34.543V129.946ZM-31.4403 129.946H-29.8889V129.172H-31.4403V129.946ZM-28.3376 129.946H-26.7862V129.172H-28.3376V129.946ZM-25.2348 129.946H-23.6835V129.172H-25.2348V129.946ZM-22.1321 129.946H-20.5808V129.172H-22.1321V129.946ZM-19.0294 129.946H-17.478V129.172H-19.0294V129.946ZM-15.9267 129.946H-14.3753V129.172H-15.9267V129.946ZM-12.824 129.946H-11.2726V129.172H-12.824V129.946ZM-9.72123 129.946H-8.16987V129.172H-9.72123V129.946ZM-6.61851 129.946H-5.06714V129.172H-6.61851V129.946ZM-3.51579 129.946H-1.96442V129.172H-3.51579V129.946ZM-0.413063 129.946H1.1383V129.172H-0.413063V129.946ZM2.68967 129.946H4.24102V129.172H2.68967V129.946ZM5.79238 129.946H7.34374V129.172H5.79238V129.946ZM8.8951 129.946H10.4465V129.172H8.8951V129.946ZM11.9978 129.946H13.5492V129.172H11.9978V129.946ZM15.1005 129.946H16.6519V129.172H15.1005V129.946ZM18.2033 129.946H19.7546V129.172H18.2033V129.946ZM21.306 129.946H22.8574V129.172H21.306V129.946ZM24.4087 129.946H25.9601V129.172H24.4087V129.946ZM27.5114 129.946H29.0628V129.172H27.5114V129.946ZM30.6142 129.946H32.1655V129.172H30.6142V129.946ZM33.7169 129.946H35.2682V129.172H33.7169V129.946ZM36.8196 129.946H38.371V129.172H36.8196V129.946ZM39.9223 129.946H41.4737V129.172H39.9223V129.946ZM43.0251 129.946H44.5764V129.172H43.0251V129.946ZM46.1278 129.946H47.6791V129.172H46.1278V129.946ZM49.2305 129.946H50.7819V129.172H49.2305V129.946ZM52.3332 129.946H53.8846V129.172H52.3332V129.946ZM55.4359 129.946H56.9873V129.172H55.4359V129.946ZM58.5387 129.946H60.09V129.172H58.5387V129.946ZM61.6414 129.946H63.1928V129.172H61.6414V129.946ZM64.7441 129.946H66.2955V129.172H64.7441V129.946ZM67.8468 129.946H69.3982V129.172H67.8468V129.946ZM70.9496 129.946H72.5009V129.172H70.9496V129.946ZM74.0523 129.946H75.6036V129.172H74.0523V129.946ZM77.155 129.946H78.7064V129.172H77.155V129.946ZM80.2577 129.946H81.8091V129.172H80.2577V129.946ZM83.3604 129.946H84.9118V129.172H83.3604V129.946ZM86.4632 129.946H88.0145V129.172H86.4632V129.946ZM89.5659 129.946H91.1172V129.172H89.5659V129.946ZM92.6686 129.946H94.22V129.172H92.6686V129.946ZM95.7713 129.946H97.3227V129.172H95.7713V129.946ZM98.8741 129.946H100.425V129.172H98.8741V129.946ZM101.977 129.946H103.528V129.172H101.977V129.946ZM105.08 129.946H106.631V129.172H105.08V129.946ZM108.182 129.946H109.734V129.172H108.182V129.946ZM111.285 129.946H112.836V129.172H111.285V129.946ZM114.388 129.946H115.939V129.172H114.388V129.946ZM117.49 129.946H119.042V129.172H117.49V129.946ZM120.593 129.946H122.144V129.172H120.593V129.946ZM123.696 129.946H125.247V129.172H123.696V129.946ZM126.799 129.946H128.35V129.172H126.799V129.946ZM129.901 129.946H131.453V129.172H129.901V129.946ZM133.004 129.946H134.555V129.172H133.004V129.946ZM136.107 129.946H137.658V129.172H136.107V129.946ZM139.209 129.946H140.761V129.172H139.209V129.946ZM142.312 129.946H143.864V129.172H142.312V129.946ZM145.415 129.946H146.966V129.172H145.415V129.946ZM148.518 129.946H150.069V129.172H148.518V129.946ZM151.62 129.946H153.172V129.172H151.62V129.946ZM154.723 129.946H156.274V129.172H154.723V129.946ZM157.826 129.946H159.377V129.172H157.826V129.946ZM160.929 129.946H162.48V129.172H160.929V129.946ZM164.031 129.946H165.583V129.172H164.031V129.946ZM167.134 129.946H168.685V129.172H167.134V129.946ZM170.237 129.946H171.788V129.172H170.237V129.946ZM173.339 129.946H174.891V129.172H173.339V129.946ZM176.442 129.946H177.993V129.172H176.442V129.946ZM179.545 129.946H181.096V129.172H179.545V129.946ZM182.648 129.946H184.199V129.172H182.648V129.946ZM185.75 129.946H187.302V129.172H185.75V129.946ZM188.853 129.946H190.404V129.172H188.853V129.946ZM191.956 129.946H193.507V129.172H191.956V129.946ZM195.058 129.946H196.61V129.172H195.058V129.946ZM198.161 129.946H199.713V129.172H198.161V129.946ZM201.264 129.946H202.815V129.172H201.264V129.946ZM204.367 129.946H205.918V129.172H204.367V129.946ZM207.469 129.946H209.021V129.172H207.469V129.946ZM210.572 129.946H212.123V129.172H210.572V129.946ZM213.675 129.946H215.226V129.172H213.675V129.946ZM216.777 129.946H218.329V129.172H216.777V129.946ZM219.88 129.946H221.432V129.172H219.88V129.946ZM222.983 129.946H224.534V129.172H222.983V129.946ZM226.086 129.946H227.637V129.172H226.086V129.946ZM229.188 129.946H230.74V129.172H229.188V129.946ZM232.291 129.946H233.842V129.172H232.291V129.946ZM235.394 129.946H236.945V129.172H235.394V129.946ZM238.497 129.946H240.048V129.172H238.497V129.946ZM241.599 129.946H243.151V129.172H241.599V129.946ZM244.702 129.946H246.253V129.172H244.702V129.946ZM247.805 129.946H249.356V129.172H247.805V129.946ZM250.907 129.946H252.459V129.172H250.907V129.946ZM254.01 129.946H255.562V129.172H254.01V129.946ZM257.113 129.946H258.664V129.172H257.113V129.946ZM260.216 129.946H261.767V129.172H260.216V129.946ZM263.318 129.946H264.87V129.172H263.318V129.946ZM266.421 129.946H267.972V129.172H266.421V129.946ZM269.524 129.946H271.075V129.172H269.524V129.946ZM272.626 129.946H274.178V129.172H272.626V129.946ZM275.729 129.946H277.281V129.172H275.729V129.946ZM278.832 129.946H280.383V129.172H278.832V129.946ZM281.935 129.946H283.486V129.172H281.935V129.946ZM285.037 129.946H286.589V129.172H285.037V129.946ZM288.14 129.946H289.691V129.172H288.14V129.946ZM291.243 129.946H292.794V129.172H291.243V129.946ZM294.346 129.946H295.897V129.172H294.346V129.946ZM297.448 129.946H299V129.172H297.448V129.946ZM300.551 129.946H302.102V129.172H300.551V129.946ZM303.654 129.946H305.205V129.172H303.654V129.946ZM306.756 129.946H308.308V129.172H306.756V129.946ZM309.859 129.946H311.411V129.172H309.859V129.946ZM312.962 129.946H314.513V129.172H312.962V129.946ZM316.065 129.946H317.616V129.172H316.065V129.946ZM319.167 129.946H320.719V129.172H319.167V129.946ZM322.27 129.946H323.821V129.172H322.27V129.946ZM325.373 129.946H326.924V129.172H325.373V129.946ZM328.475 129.946H330.027V129.172H328.475V129.946ZM331.578 129.946H333.13V129.172H331.578V129.946ZM334.681 129.946H336.232V129.172H334.681V129.946ZM337.784 129.946H339.335V129.172H337.784V129.946ZM340.886 129.946H342.438V129.172H340.886V129.946ZM343.989 129.946H345.54V129.172H343.989V129.946ZM347.092 129.946H348.643V129.172H347.092V129.946ZM350.195 129.946H351.746V129.172H350.195V129.946ZM353.297 129.946H354.073V129.172H353.297V129.946ZM354.073 129.946C354.329 129.946 354.584 129.943 354.839 129.938L354.824 129.165C354.574 129.169 354.324 129.172 354.073 129.172V129.946ZM356.363 129.879C356.873 129.85 357.38 129.81 357.885 129.761L357.81 128.991C357.316 129.039 356.818 129.078 356.318 129.107L356.363 129.879ZM359.403 129.583C359.909 129.514 360.412 129.435 360.911 129.346L360.776 128.584C360.286 128.671 359.793 128.749 359.298 128.817L359.403 129.583ZM362.409 129.05C362.907 128.941 363.402 128.823 363.893 128.695L363.698 127.946C363.217 128.071 362.732 128.187 362.243 128.294L362.409 129.05ZM365.363 128.281C365.852 128.133 366.336 127.976 366.816 127.809L366.562 127.078C366.092 127.241 365.617 127.395 365.139 127.54L365.363 128.281ZM368.248 127.281C368.723 127.095 369.193 126.9 369.659 126.696L369.348 125.987C368.892 126.187 368.431 126.378 367.966 126.56L368.248 127.281ZM371.045 126.056C371.503 125.833 371.957 125.601 372.405 125.361L372.039 124.679C371.6 124.915 371.156 125.141 370.706 125.36L371.045 126.056ZM373.736 124.614C374.176 124.356 374.61 124.09 375.038 123.815L374.62 123.164C374.2 123.433 373.775 123.694 373.345 123.947L373.736 124.614ZM376.306 122.966C376.724 122.674 377.135 122.374 377.541 122.067L377.073 121.451C376.676 121.752 376.273 122.045 375.863 122.331L376.306 122.966ZM378.739 121.121C379.133 120.798 379.519 120.467 379.9 120.129L379.386 119.551C379.013 119.882 378.634 120.207 378.248 120.523L378.739 121.121ZM381.021 119.092C381.387 118.74 381.747 118.38 382.1 118.013L381.543 117.476C381.197 117.836 380.844 118.189 380.484 118.535L381.021 119.092ZM383.137 116.892C383.475 116.512 383.806 116.125 384.129 115.731L383.531 115.24C383.214 115.626 382.89 116.005 382.559 116.378L383.137 116.892ZM385.075 114.533C385.382 114.128 385.682 113.716 385.973 113.298L385.339 112.855C385.053 113.265 384.76 113.668 384.458 114.065L385.075 114.533ZM386.823 112.03C387.097 111.602 387.364 111.168 387.622 110.729L386.955 110.337C386.702 110.767 386.441 111.192 386.172 111.612L386.823 112.03ZM388.369 109.397C388.609 108.949 388.841 108.495 389.064 108.037L388.368 107.699C388.149 108.148 387.922 108.592 387.687 109.032L388.369 109.397ZM389.704 106.651C389.907 106.185 390.102 105.715 390.288 105.241L389.568 104.958C389.386 105.424 389.195 105.884 388.995 106.34L389.704 106.651ZM390.817 103.808C390.984 103.328 391.141 102.844 391.289 102.355L390.548 102.131C390.403 102.609 390.249 103.084 390.086 103.555L390.817 103.808ZM391.703 100.885C391.831 100.394 391.949 99.8991 392.058 99.4007L391.302 99.2356C391.195 99.724 391.079 100.209 390.954 100.69L391.703 100.885ZM392.354 97.9033C392.443 97.4037 392.522 96.9008 392.591 96.3948L391.825 96.2897C391.757 96.7856 391.679 97.2785 391.592 97.7682L392.354 97.9033ZM392.769 94.8772C392.818 94.3727 392.858 93.8653 392.887 93.3554L392.115 93.3105C392.086 93.8104 392.047 94.3077 391.999 94.8022L392.769 94.8772ZM392.946 91.8312C392.951 91.5764 392.954 91.3211 392.954 91.0652H392.18C392.18 91.3161 392.177 91.5665 392.173 91.8162L392.946 91.8312ZM392.954 91.0652V90.2914H392.18V91.0652H392.954ZM392.954 88.744V87.1965H392.18V88.744H392.954ZM392.954 85.649V84.1015H392.18V85.649H392.954ZM392.954 82.554V81.7803H392.18V82.554H392.954ZM392.954 81.7803C392.954 81.5272 392.957 81.2749 392.963 81.0235L392.19 81.0035C392.183 81.2617 392.18 81.5206 392.18 81.7803H392.954ZM393.041 79.5163C393.08 79.0122 393.132 78.5118 393.197 78.0154L392.43 77.9153C392.363 78.4251 392.31 78.9389 392.27 79.4564L393.041 79.5163ZM393.431 76.5248C393.523 76.0282 393.627 75.5361 393.744 75.0487L392.991 74.8687C392.872 75.3692 392.764 75.8747 392.671 76.3847L393.431 76.5248ZM394.133 73.5912C394.276 73.1074 394.432 72.629 394.599 72.1562L393.87 71.8979C393.698 72.3835 393.538 72.8749 393.391 73.3717L394.133 73.5912ZM395.14 70.7477C395.333 70.2821 395.538 69.8227 395.755 69.3697L395.057 69.0361C394.834 69.5013 394.624 69.9732 394.426 70.4514L395.14 70.7477ZM396.441 68.0258C396.682 67.5832 396.934 67.1476 397.197 66.7195L396.537 66.3146C396.267 66.7542 396.009 67.2015 395.761 67.656L396.441 68.0258ZM398.02 65.4545C398.305 65.0398 398.602 64.6329 398.908 64.2342L398.294 63.7628C397.98 64.1721 397.676 64.5898 397.383 65.0157L398.02 65.4545ZM399.858 63.0619C400.185 62.6794 400.522 62.3055 400.869 61.9407L400.307 61.408C399.952 61.7826 399.606 62.1664 399.27 62.5592L399.858 63.0619ZM401.936 60.8735C402.301 60.5272 402.674 60.1904 403.057 59.8633L402.554 59.2752C402.161 59.611 401.778 59.9568 401.403 60.3124L401.936 60.8735ZM404.229 58.9129C404.628 58.6065 405.035 58.3104 405.45 58.0248L405.011 57.3875C404.585 57.6808 404.167 57.9848 403.758 58.2994L404.229 58.9129ZM406.715 57.2017C407.143 56.9387 407.578 56.6867 408.021 56.4459L407.651 55.7662C407.197 56.0135 406.749 56.2723 406.31 56.5423L406.715 57.2017ZM409.365 55.7598C409.818 55.5433 410.277 55.3384 410.743 55.1453L410.446 54.4306C409.968 54.6289 409.496 54.8394 409.031 55.0616L409.365 55.7598ZM412.151 54.6043C412.624 54.4369 413.103 54.2814 413.586 54.1383L413.367 53.3964C412.87 53.5433 412.379 53.703 411.893 53.875L412.151 54.6043ZM415.044 53.7487C415.531 53.6321 416.023 53.5279 416.52 53.4364L416.38 52.6755C415.87 52.7694 415.364 52.8765 414.864 52.9962L415.044 53.7487ZM418.01 53.2021C418.507 53.1373 419.007 53.0852 419.511 53.046L419.451 52.2746C418.934 52.3148 418.42 52.3684 417.91 52.4348L418.01 53.2021ZM421.019 52.9682C421.27 52.9617 421.522 52.9585 421.775 52.9585V52.1847C421.516 52.1847 421.257 52.1881 420.999 52.1947L421.019 52.9682ZM421.775 52.9585C422.028 52.9585 422.281 52.9617 422.532 52.9682L422.552 52.1947C422.294 52.1881 422.035 52.1847 421.775 52.1847V52.9585ZM424.039 53.046C424.543 53.0852 425.044 53.1373 425.54 53.2021L425.64 52.4348C425.131 52.3684 424.617 52.3148 424.099 52.2746L424.039 53.046ZM427.031 53.4364C427.527 53.5279 428.02 53.6321 428.507 53.7487L428.687 52.9962C428.186 52.8765 427.681 52.7694 427.171 52.6755L427.031 53.4364ZM429.965 54.1383C430.448 54.2814 430.927 54.4369 431.4 54.6043L431.658 53.875C431.172 53.703 430.681 53.5433 430.184 53.3964L429.965 54.1383ZM432.808 55.1453C433.274 55.3384 433.733 55.5433 434.186 55.7598L434.52 55.0616C434.054 54.8394 433.583 54.6289 433.104 54.4306L432.808 55.1453ZM435.53 56.4459C435.973 56.6867 436.408 56.9387 436.836 57.2017L437.241 56.5423C436.801 56.2723 436.354 56.0135 435.9 55.7662L435.53 56.4459ZM438.101 58.0248C438.516 58.3104 438.923 58.6065 439.321 58.9129L439.793 58.2994C439.384 57.9848 438.966 57.6808 438.54 57.3875L438.101 58.0248ZM440.494 59.8633C440.876 60.1904 441.25 60.5272 441.615 60.8735L442.148 60.3124C441.773 59.9568 441.389 59.611 440.997 59.2752L440.494 59.8633ZM442.682 61.9407C443.029 62.3055 443.365 62.6794 443.692 63.0619L444.281 62.5592C443.945 62.1664 443.599 61.7826 443.243 61.408L442.682 61.9407ZM444.643 64.2342C444.949 64.6329 445.245 65.0398 445.531 65.4545L446.168 65.0157C445.875 64.5898 445.571 64.1721 445.256 63.7628L444.643 64.2342ZM446.354 66.7195C446.617 67.1476 446.869 67.5832 447.11 68.0258L447.789 67.656C447.542 67.2015 447.283 66.7542 447.013 66.3146L446.354 66.7195ZM447.796 69.3697C448.012 69.8227 448.217 70.2821 448.41 70.7478L449.125 70.4514C448.927 69.9732 448.716 69.5013 448.494 69.0361L447.796 69.3697ZM448.951 72.1562C449.119 72.629 449.274 73.1074 449.417 73.5912L450.159 73.3717C450.012 72.8749 449.853 72.3835 449.681 71.8979L448.951 72.1562ZM449.807 75.0487C449.924 75.5361 450.028 76.0282 450.119 76.5249L450.88 76.3847C450.786 75.8747 450.679 75.3692 450.56 74.8687L449.807 75.0487ZM450.354 78.0154C450.418 78.5118 450.471 79.0123 450.51 79.5163L451.281 79.4564C451.241 78.9389 451.187 78.4251 451.121 77.9154L450.354 78.0154ZM450.588 81.0235C450.594 81.275 450.597 81.5273 450.597 81.7803H451.371C451.371 81.5206 451.368 81.2617 451.361 81.0035L450.588 81.0235ZM450.597 81.7803V82.5525H451.371V81.7803H450.597ZM450.597 84.0969V85.6412H451.371V84.0969H450.597ZM450.597 87.1856V88.7299H451.371V87.1856H450.597ZM450.597 90.2743V91.8187H451.371V90.2743H450.597ZM450.597 93.363V94.9074H451.371V93.363H450.597ZM450.597 96.4518V97.9961H451.371V96.4518H450.597ZM450.597 99.5405V101.085H451.371V99.5405H450.597ZM450.597 102.629V104.174H451.371V102.629H450.597ZM450.597 105.718V107.262H451.371V105.718H450.597ZM450.597 108.807V110.351H451.371V108.807H450.597ZM450.597 111.895V113.44H451.371V111.895H450.597ZM450.597 114.984V116.528H451.371V114.984H450.597ZM450.597 118.073V119.617H451.371V118.073H450.597ZM450.597 121.162V122.706H451.371V121.162H450.597ZM450.597 124.25V125.795H451.371V124.25H450.597ZM450.597 127.339V128.883H451.371V127.339H450.597ZM450.597 130.428V131.972H451.371V130.428H450.597ZM450.597 133.516V135.061H451.371V133.516H450.597ZM450.597 136.605V138.15H451.371V136.605H450.597ZM450.597 139.694V141.238H451.371V139.694H450.597ZM450.597 142.783V144.327H451.371V142.783H450.597ZM450.597 145.871V147.416H451.371V145.871H450.597ZM450.597 148.96V150.504H451.371V148.96H450.597ZM450.597 152.049V153.593H451.371V152.049H450.597ZM450.597 155.137V156.682H451.371V155.137H450.597ZM450.597 158.226V159.771H451.371V158.226H450.597ZM450.597 161.315V162.859H451.371V161.315H450.597ZM450.597 164.404V165.948H451.371V164.404H450.597ZM450.597 167.492V169.037H451.371V167.492H450.597ZM450.597 170.581V172.126H451.371V170.581H450.597ZM450.597 173.67V175.214H451.371V173.67H450.597ZM450.597 176.759V177.531H451.371V176.759H450.597ZM450.597 177.531C450.597 177.794 450.599 178.058 450.604 178.32L451.377 178.308C451.373 178.05 451.371 177.79 451.371 177.531H450.597ZM450.653 179.891C450.678 180.417 450.711 180.941 450.753 181.463L451.524 181.402C451.483 180.888 451.45 180.372 451.426 179.854L450.653 179.891ZM450.902 183.028C450.96 183.551 451.026 184.071 451.101 184.589L451.867 184.479C451.793 183.969 451.728 183.457 451.671 182.942L450.902 183.028ZM451.35 186.143C451.441 186.66 451.541 187.174 451.648 187.686L452.406 187.527C452.3 187.024 452.202 186.517 452.112 186.008L451.35 186.143ZM451.997 189.222C452.121 189.732 452.254 190.24 452.394 190.744L453.139 190.537C453.001 190.04 452.871 189.541 452.749 189.039L451.997 189.222ZM452.84 192.252C452.997 192.754 453.161 193.252 453.334 193.747L454.065 193.492C453.895 193.005 453.732 192.515 453.578 192.021L452.84 192.252ZM453.875 195.224C454.064 195.714 454.26 196.2 454.464 196.683L455.176 196.382C454.976 195.907 454.783 195.428 454.597 194.946L453.875 195.224ZM455.099 198.123C455.318 198.599 455.544 199.072 455.778 199.541L456.471 199.195C456.24 198.734 456.017 198.269 455.801 197.799L455.099 198.123ZM456.503 200.937C456.752 201.399 457.009 201.857 457.272 202.31L457.941 201.922C457.682 201.475 457.43 201.025 457.184 200.57L456.503 200.937ZM458.083 203.658C458.361 204.103 458.645 204.544 458.937 204.979L459.58 204.549C459.293 204.12 459.013 203.687 458.74 203.248L458.083 203.658ZM459.831 206.274C460.136 206.7 460.448 207.122 460.765 207.539L461.381 207.07C461.068 206.659 460.761 206.244 460.461 205.824L459.831 206.274ZM461.739 208.775C462.07 209.181 462.407 209.583 462.75 209.979L463.335 209.473C462.997 209.082 462.665 208.687 462.339 208.286L461.739 208.775ZM463.799 211.152C464.154 211.537 464.516 211.917 464.883 212.291L465.435 211.749C465.074 211.381 464.718 211.007 464.368 210.627L463.799 211.152ZM466.002 213.397C466.381 213.759 466.765 214.116 467.155 214.467L467.673 213.892C467.289 213.546 466.91 213.195 466.537 212.838L466.002 213.397ZM468.34 215.501C468.741 215.839 469.146 216.172 469.557 216.498L470.038 215.892C469.634 215.571 469.234 215.243 468.84 214.91L468.34 215.501ZM470.805 217.457C471.225 217.77 471.65 218.076 472.08 218.376L472.523 217.741C472.099 217.446 471.68 217.144 471.267 216.836L470.805 217.457ZM473.384 219.256C473.823 219.542 474.267 219.822 474.715 220.095L475.118 219.434C474.676 219.165 474.239 218.89 473.807 218.608L473.384 219.256ZM476.071 220.892C476.527 221.15 476.987 221.402 477.452 221.646L477.812 220.962C477.355 220.721 476.902 220.473 476.453 220.219L476.071 220.892ZM478.855 222.358C479.325 222.587 479.8 222.809 480.279 223.025L480.596 222.319C480.125 222.107 479.657 221.888 479.194 221.662L478.855 222.358ZM481.724 223.647C482.208 223.847 482.696 224.039 483.187 224.224L483.46 223.5C482.976 223.318 482.496 223.128 482.019 222.932L481.724 223.647ZM484.668 224.755C485.164 224.924 485.663 225.085 486.166 225.239L486.392 224.499C485.897 224.348 485.406 224.189 484.917 224.022L484.668 224.755ZM487.676 225.676C488.181 225.813 488.689 225.943 489.2 226.065L489.38 225.312C488.876 225.192 488.376 225.064 487.879 224.929L487.676 225.676ZM490.737 226.406C491.249 226.512 491.764 226.609 492.281 226.699L492.413 225.936C491.904 225.848 491.397 225.752 490.893 225.648L490.737 226.406ZM493.836 226.943C494.354 227.016 494.874 227.081 495.397 227.138L495.481 226.369C494.966 226.313 494.454 226.249 493.944 226.177L493.836 226.943ZM496.962 227.285C497.484 227.325 498.008 227.358 498.534 227.382L498.57 226.609C498.052 226.585 497.536 226.553 497.022 226.513L496.962 227.285ZM500.104 227.431C500.367 227.435 500.63 227.437 500.893 227.437V226.663C500.634 226.663 500.375 226.661 500.116 226.657L500.104 227.431ZM500.893 227.437C501.153 227.437 501.412 227.435 501.671 227.431L501.659 226.657C501.404 226.661 501.149 226.663 500.893 226.663V227.437ZM503.217 227.383C503.734 227.359 504.25 227.327 504.764 227.287L504.704 226.516C504.198 226.555 503.691 226.586 503.181 226.61L503.217 227.383ZM506.305 227.143C506.819 227.087 507.332 227.022 507.842 226.951L507.734 226.184C507.232 226.255 506.727 226.318 506.221 226.374L506.305 227.143ZM509.372 226.71C509.882 226.622 510.388 226.526 510.892 226.422L510.736 225.664C510.24 225.766 509.742 225.861 509.24 225.948L509.372 226.71ZM512.406 226.086C512.909 225.966 513.409 225.838 513.906 225.703L513.703 224.956C513.214 225.089 512.721 225.215 512.226 225.333L512.406 226.086ZM515.393 225.273C515.888 225.122 516.379 224.963 516.868 224.796L516.618 224.064C516.137 224.228 515.653 224.384 515.166 224.533L515.393 225.273ZM518.325 224.274C518.809 224.092 519.289 223.902 519.766 223.706L519.471 222.991C519.002 223.184 518.529 223.37 518.053 223.55L518.325 224.274ZM521.188 223.093C521.66 222.881 522.127 222.662 522.59 222.436L522.251 221.741C521.795 221.963 521.335 222.179 520.871 222.387L521.188 223.093ZM523.972 221.736C524.429 221.495 524.882 221.248 525.331 220.993L524.949 220.32C524.507 220.571 524.061 220.814 523.611 221.051L523.972 221.736ZM526.666 220.209C527.107 219.94 527.544 219.665 527.976 219.383L527.553 218.735C527.128 219.012 526.698 219.283 526.263 219.548L526.666 220.209ZM529.26 218.517C529.683 218.221 530.102 217.919 530.516 217.611L530.054 216.991C529.646 217.294 529.234 217.591 528.817 217.882L529.26 218.517ZM531.744 216.667C532.148 216.346 532.548 216.019 532.942 215.686L532.442 215.095C532.054 215.423 531.661 215.745 531.263 216.061L531.744 216.667ZM534.109 214.668C534.492 214.323 534.871 213.972 535.244 213.615L534.708 213.056C534.341 213.407 533.969 213.753 533.591 214.093L534.109 214.668ZM536.345 212.526C536.707 212.158 537.063 211.784 537.413 211.404L536.844 210.88C536.5 211.253 536.149 211.622 535.793 211.984L536.345 212.526ZM538.445 210.25C538.783 209.86 539.115 209.464 539.441 209.064L538.841 208.576C538.52 208.97 538.193 209.359 537.86 209.743L538.445 210.25ZM540.399 207.847C540.712 207.437 541.019 207.022 541.319 206.602L540.69 206.152C540.394 206.565 540.092 206.974 539.784 207.378L540.399 207.847ZM542.2 205.328C542.486 204.898 542.767 204.465 543.04 204.026L542.383 203.617C542.114 204.048 541.839 204.475 541.556 204.898L542.2 205.328ZM543.839 202.7C544.098 202.254 544.35 201.803 544.595 201.348L543.914 200.981C543.673 201.429 543.425 201.872 543.17 202.311L543.839 202.7ZM545.309 199.973C545.539 199.512 545.762 199.047 545.978 198.577L545.275 198.254C545.063 198.716 544.843 199.174 544.617 199.628L545.309 199.973ZM546.603 197.159C546.804 196.684 546.997 196.206 547.183 195.723L546.46 195.445C546.278 195.92 546.088 196.391 545.891 196.859L546.603 197.159ZM547.716 194.269C547.885 193.782 548.048 193.291 548.202 192.797L547.464 192.566C547.312 193.052 547.152 193.535 546.985 194.015L547.716 194.269ZM548.641 191.313C548.779 190.817 548.909 190.317 549.032 189.814L548.28 189.631C548.16 190.126 548.031 190.617 547.895 191.106L548.641 191.313ZM549.375 188.302C549.481 187.799 549.579 187.292 549.669 186.783L548.907 186.649C548.818 187.149 548.722 187.648 548.618 188.143L549.375 188.302ZM549.914 185.253C549.987 184.743 550.053 184.231 550.11 183.716L549.341 183.631C549.285 184.137 549.22 184.641 549.148 185.143L549.914 185.253ZM550.257 182.176C550.298 181.662 550.33 181.146 550.355 180.628L549.582 180.591C549.558 181.101 549.526 181.609 549.486 182.115L550.257 182.176ZM550.404 179.082C550.408 178.823 550.41 178.564 550.41 178.304H549.636C549.636 178.56 549.634 178.815 549.63 179.07L550.404 179.082ZM550.41 178.304V177.41H549.636V178.304H550.41ZM550.41 175.621V173.831H549.636V175.621H550.41ZM550.41 172.042V171.147H549.636V172.042H550.41ZM550.41 171.147C550.41 170.889 550.412 170.631 550.417 170.374L549.643 170.36C549.638 170.622 549.636 170.884 549.636 171.147H550.41ZM550.474 168.836C550.502 168.32 550.54 167.808 550.587 167.298L549.817 167.227C549.769 167.746 549.73 168.268 549.701 168.793L550.474 168.836ZM550.758 165.766C550.825 165.255 550.901 164.747 550.986 164.242L550.223 164.113C550.136 164.628 550.059 165.145 549.991 165.666L550.758 165.766ZM551.27 162.729C551.375 162.224 551.489 161.723 551.612 161.226L550.861 161.04C550.736 161.547 550.62 162.058 550.513 162.572L551.27 162.729ZM552.01 159.736C552.153 159.242 552.304 158.751 552.464 158.264L551.729 158.022C551.566 158.518 551.412 159.019 551.267 159.523L552.01 159.736ZM552.973 156.81C553.152 156.328 553.34 155.85 553.536 155.376L552.821 155.08C552.621 155.562 552.43 156.05 552.247 156.541L552.973 156.81ZM554.153 153.964C554.368 153.496 554.591 153.034 554.823 152.576L554.132 152.227C553.896 152.693 553.669 153.164 553.45 153.641L554.153 153.964ZM555.544 151.214C555.793 150.765 556.05 150.32 556.315 149.881L555.653 149.481C555.383 149.928 555.121 150.381 554.867 150.839L555.544 151.214ZM557.137 148.576C557.419 148.146 557.708 147.722 558.006 147.304L557.375 146.856C557.072 147.282 556.777 147.714 556.49 148.152L557.137 148.576ZM558.922 146.065C559.235 145.657 559.556 145.256 559.883 144.861L559.288 144.367C558.954 144.769 558.627 145.178 558.308 145.593L558.922 146.065ZM560.889 143.693C561.232 143.31 561.581 142.933 561.938 142.563L561.38 142.026C561.017 142.403 560.661 142.787 560.312 143.177L560.889 143.693ZM563.027 141.474C563.397 141.117 563.774 140.768 564.157 140.425L563.641 139.848C563.251 140.197 562.867 140.553 562.491 140.916L563.027 141.474ZM565.325 139.419C565.72 139.091 566.121 138.771 566.529 138.458L566.057 137.844C565.642 138.163 565.233 138.49 564.831 138.824L565.325 139.419ZM567.768 137.542C568.186 137.244 568.611 136.954 569.04 136.673L568.616 136.026C568.178 136.313 567.746 136.608 567.32 136.911L567.768 137.542ZM570.345 135.851C570.784 135.586 571.229 135.329 571.678 135.08L571.304 134.403C570.845 134.657 570.392 134.919 569.945 135.189L570.345 135.851ZM573.04 134.359C573.498 134.127 573.96 133.904 574.428 133.689L574.105 132.986C573.628 133.205 573.157 133.432 572.691 133.668L573.04 134.359ZM575.84 133.072C576.314 132.875 576.792 132.688 577.275 132.508L577.005 131.783C576.514 131.966 576.026 132.157 575.544 132.357L575.84 133.072ZM578.728 132C579.215 131.84 579.706 131.688 580.201 131.546L579.987 130.803C579.483 130.947 578.983 131.102 578.487 131.265L578.728 132ZM581.69 131.148C582.187 131.025 582.688 130.911 583.193 130.806L583.036 130.049C582.522 130.155 582.011 130.272 581.504 130.397L581.69 131.148ZM584.706 130.522C585.211 130.437 585.719 130.361 586.23 130.294L586.13 129.527C585.609 129.595 585.092 129.672 584.577 129.759L584.706 130.522ZM587.762 130.123C588.272 130.076 588.785 130.038 589.3 130.009L589.257 129.237C588.732 129.266 588.21 129.305 587.691 129.353L587.762 130.123ZM590.838 129.953C591.095 129.948 591.353 129.946 591.611 129.946V129.172C591.348 129.172 591.086 129.174 590.824 129.179L590.838 129.953ZM591.611 129.946C591.875 129.946 592.137 129.943 592.399 129.938L592.385 129.165C592.128 129.17 591.87 129.172 591.611 129.172V129.946ZM593.966 129.881C594.491 129.852 595.013 129.813 595.532 129.765L595.461 128.994C594.951 129.042 594.438 129.08 593.923 129.108L593.966 129.881ZM597.093 129.591C597.614 129.523 598.131 129.446 598.646 129.359L598.517 128.596C598.012 128.681 597.504 128.757 596.993 128.824L597.093 129.591ZM600.187 129.069C600.701 128.962 601.212 128.846 601.719 128.721L601.533 127.969C601.036 128.093 600.535 128.206 600.03 128.311L600.187 129.069ZM603.236 128.315C603.74 128.17 604.24 128.016 604.736 127.853L604.495 127.118C604.008 127.278 603.517 127.429 603.022 127.571L603.236 128.315ZM606.218 127.334C606.709 127.152 607.197 126.961 607.679 126.76L607.383 126.046C606.909 126.242 606.431 126.43 605.948 126.609L606.218 127.334ZM609.118 126.132C609.595 125.913 610.066 125.685 610.532 125.449L610.183 124.759C609.725 124.991 609.263 125.214 608.795 125.429L609.118 126.132ZM611.919 124.715C612.378 124.461 612.831 124.199 613.278 123.929L612.878 123.266C612.439 123.532 611.994 123.789 611.545 124.038L611.919 124.715ZM614.607 123.092C615.045 122.805 615.477 122.509 615.903 122.206L615.455 121.576C615.037 121.873 614.612 122.163 614.183 122.445L614.607 123.092ZM617.166 121.273C617.581 120.954 617.99 120.628 618.392 120.294L617.898 119.698C617.503 120.026 617.102 120.347 616.694 120.66L617.166 121.273ZM619.582 119.269C619.972 118.92 620.356 118.564 620.732 118.201L620.196 117.644C619.826 118 619.449 118.35 619.066 118.692L619.582 119.269ZM621.842 117.091C622.206 116.714 622.562 116.331 622.911 115.941L622.334 115.425C621.991 115.808 621.642 116.184 621.285 116.554L621.842 117.091ZM623.935 114.751C624.269 114.348 624.596 113.939 624.915 113.524L624.301 113.053C623.988 113.46 623.667 113.862 623.34 114.257L623.935 114.751ZM625.848 112.262C626.151 111.836 626.446 111.404 626.733 110.966L626.086 110.541C625.804 110.971 625.515 111.395 625.217 111.814L625.848 112.262ZM627.57 109.637C627.84 109.189 628.102 108.736 628.356 108.278L627.679 107.903C627.43 108.353 627.173 108.798 626.908 109.237L627.57 109.637ZM629.091 106.891C629.327 106.425 629.554 105.953 629.773 105.477L629.07 105.154C628.855 105.621 628.632 106.084 628.4 106.542L629.091 106.891ZM630.402 104.038C630.602 103.555 630.793 103.068 630.976 102.576L630.25 102.307C630.071 102.79 629.883 103.268 629.687 103.742L630.402 104.038ZM631.494 101.095C631.657 100.599 631.811 100.099 631.956 99.595L631.213 99.3811C631.07 99.8757 630.919 100.367 630.759 100.853L631.494 101.095ZM632.362 98.0777C632.487 97.5707 632.603 97.06 632.71 96.5459L631.953 96.3887C631.848 96.8932 631.734 97.3944 631.611 97.892L632.362 98.0777ZM633 95.0043C633.087 94.49 633.164 93.9725 633.232 93.452L632.465 93.352C632.398 93.8628 632.322 94.3708 632.237 94.8756L633 95.0043ZM633.406 91.8909C633.454 91.3715 633.493 90.8494 633.522 90.3247L632.749 90.2819C632.721 90.7971 632.683 91.3097 632.636 91.8196L633.406 91.8909ZM633.58 88.7578C633.585 88.4959 633.587 88.2333 633.587 87.9702H632.813C632.813 88.2285 632.811 88.4864 632.806 88.7436L633.58 88.7578ZM633.587 87.9702V87.155H632.813V87.9702H633.587ZM633.587 85.5246V83.8942H632.813V85.5246H633.587ZM633.587 82.2638V80.6335H632.813V82.2638H633.587ZM633.587 79.0031V77.3727H632.813V79.0031H633.587ZM633.587 75.7423V74.1119H632.813V75.7423H633.587ZM633.587 72.4816V70.8512H632.813V72.4816H633.587ZM633.587 69.2208V67.5904H632.813V69.2208H633.587ZM633.587 65.96V65.1449H632.813V65.96H633.587ZM633.587 65.1449C633.587 64.8894 633.588 64.6342 633.591 64.3794L632.818 64.3704C632.815 64.6282 632.813 64.8863 632.813 65.1449H633.587ZM633.627 62.8551C633.645 62.3466 633.669 61.8397 633.698 61.3343L632.926 61.289C632.896 61.8004 632.872 62.3134 632.854 62.8279L633.627 62.8551ZM633.806 59.8124C633.848 59.3058 633.895 58.8008 633.949 58.2976L633.179 58.2158C633.125 58.7251 633.077 59.2361 633.035 59.7488L633.806 59.8124ZM634.128 56.7818C634.194 56.2781 634.265 55.7761 634.343 55.2761L633.578 55.1578C633.5 55.6639 633.427 56.1719 633.361 56.6818L634.128 56.7818ZM634.594 53.7703C634.684 53.2703 634.779 52.7724 634.88 52.2765L634.122 52.1218C634.02 52.6237 633.923 53.1277 633.833 53.6337L634.594 53.7703ZM635.204 50.7845C635.317 50.2892 635.436 49.7962 635.561 49.3054L634.811 49.1146C634.685 49.6113 634.564 50.1104 634.449 50.6117L635.204 50.7845ZM635.955 47.8314C636.092 47.342 636.235 46.855 636.383 46.3705L635.644 46.1439C635.493 46.6344 635.349 47.1273 635.21 47.6226L635.955 47.8314ZM636.848 44.9177C637.008 44.4354 637.174 43.9557 637.346 43.4786L636.617 43.2168C636.444 43.6997 636.276 44.1853 636.113 44.6734L636.848 44.9177ZM637.879 42.0501C638.062 41.576 638.251 41.1047 638.445 40.6362L637.73 40.3398C637.534 40.814 637.343 41.2911 637.157 41.7709L637.879 42.0501ZM639.046 39.2351C639.252 38.7704 639.463 38.3086 639.68 37.8497L638.98 37.5195C638.761 37.9839 638.547 38.4513 638.339 38.9217L639.046 39.2351ZM640.347 36.4792C640.575 36.0248 640.808 35.5736 641.046 35.1255L640.363 34.7622C640.122 35.2157 639.886 35.6724 639.655 36.1323L640.347 36.4792ZM641.778 33.7884C642.027 33.3455 642.281 32.9059 642.541 32.4695L641.876 32.0741C641.613 32.5157 641.356 32.9607 641.103 33.409L641.778 33.7884ZM643.335 31.1689C643.605 30.7384 643.88 30.3113 644.16 29.8877L643.515 29.4611C643.231 29.8898 642.953 30.322 642.68 30.7578L643.335 31.1689ZM645.016 28.6264C645.306 28.2092 645.601 27.7956 645.901 27.3857L645.276 26.929C644.973 27.3438 644.674 27.7623 644.38 28.1845L645.016 28.6264ZM646.815 26.1664C647.124 25.7635 647.439 25.3644 647.758 24.9691L647.155 24.4832C646.833 24.8833 646.515 25.2872 646.201 25.695L646.815 26.1664ZM648.729 23.7945C649.057 23.4067 649.39 23.0229 649.727 22.6431L649.149 22.1293C648.807 22.5136 648.47 22.9021 648.138 23.2945L648.729 23.7945ZM650.753 21.5157C651.099 21.144 651.449 20.7763 651.804 20.4129L651.251 19.8723C650.892 20.2401 650.537 20.6122 650.186 20.9884L650.753 21.5157ZM652.882 19.3353C653.245 18.9804 653.613 18.6297 653.985 18.2834L653.458 17.7172C653.081 18.0677 652.709 18.4225 652.341 18.7817L652.882 19.3353ZM655.112 17.258C655.492 16.9207 655.876 16.5878 656.264 16.2595L655.764 15.669C655.371 16.0013 654.983 16.3381 654.598 16.6795L655.112 17.258ZM657.438 15.2885C657.833 14.9696 658.233 14.6553 658.636 14.3457L658.164 13.7322C657.756 14.0455 657.352 14.3636 656.952 14.6864L657.438 15.2885ZM659.855 13.4314C660.265 13.1317 660.678 12.8366 661.096 12.5464L660.654 11.9113C660.231 12.2049 659.813 12.5035 659.398 12.8069L659.855 13.4314ZM662.357 11.6911C662.78 11.4111 663.208 11.1361 663.638 10.866L663.227 10.2106C662.791 10.4839 662.359 10.7623 661.93 11.0456L662.357 11.6911ZM664.939 10.0716C665.375 9.81215 665.815 9.55776 666.258 9.30848L665.878 8.63419C665.43 8.88649 664.985 9.14396 664.543 9.40653L664.939 10.0716ZM667.595 8.57686C668.043 8.33857 668.494 8.10545 668.948 7.87758L668.601 7.18596C668.142 7.41659 667.685 7.65253 667.231 7.89371L667.595 8.57686ZM670.319 7.21056C670.778 6.99401 671.24 6.78275 671.704 6.57685L671.391 5.86943C670.92 6.07783 670.453 6.29166 669.989 6.51084L670.319 7.21056ZM673.105 5.97608C673.574 5.78179 674.045 5.59291 674.519 5.40951L674.24 4.68789C673.76 4.87353 673.283 5.0647 672.809 5.26135L673.105 5.97608ZM675.948 4.87645C676.425 4.70491 676.905 4.53888 677.387 4.37842L677.143 3.64425C676.654 3.80666 676.169 3.97471 675.686 4.14834L675.948 4.87645ZM678.84 3.91435C679.324 3.76597 679.811 3.62318 680.301 3.48605L680.092 2.74101C679.596 2.8798 679.104 3.02433 678.613 3.17452L678.84 3.91435ZM681.775 3.09204C682.265 2.96714 682.758 2.84791 683.254 2.73443L683.081 1.98023C682.58 2.0951 682.081 2.21578 681.584 2.3422L681.775 3.09204ZM684.746 2.41133C685.242 2.31016 685.74 2.21471 686.239 2.12508L686.103 1.36348C685.597 1.45421 685.093 1.5508 684.591 1.6532L684.746 2.41133ZM687.745 1.87365C688.245 1.7963 688.747 1.72473 689.251 1.65902L689.151 0.891777C688.641 0.958282 688.133 1.03072 687.627 1.109L687.745 1.87365ZM690.767 1.47962C691.27 1.42613 691.775 1.37847 692.282 1.3367L692.218 0.565575C691.705 0.607844 691.194 0.656081 690.685 0.710219L690.767 1.47962ZM693.803 1.22933C694.309 1.19967 694.816 1.17587 695.324 1.158L695.297 0.384739C694.783 0.402822 694.27 0.426904 693.758 0.456918L693.803 1.22933ZM696.849 1.12231C697.103 1.11932 697.359 1.11783 697.614 1.11783V0.344087C697.355 0.344087 697.097 0.3456 696.84 0.34862L696.849 1.12231ZM697.614 1.11783H698.375V0.344087H697.614V1.11783ZM699.897 1.11783H701.42V0.344087H699.897V1.11783ZM702.942 1.11783H704.464V0.344087H702.942V1.11783ZM705.986 1.11783H707.509V0.344087H705.986V1.11783ZM709.031 1.11783H710.553V0.344087H709.031V1.11783ZM712.075 1.11783H713.598V0.344087H712.075V1.11783ZM715.12 1.11783H716.642V0.344087H715.12V1.11783ZM718.164 1.11783H719.687V0.344087H718.164V1.11783ZM721.209 1.11783H722.731V0.344087H721.209V1.11783ZM724.253 1.11783H725.776V0.344087H724.253V1.11783ZM727.298 1.11783H728.82V0.344087H727.298V1.11783ZM730.342 1.11783H731.865V0.344087H730.342V1.11783ZM733.387 1.11783H734.909V0.344087H733.387V1.11783ZM736.431 1.11783H737.954V0.344087H736.431V1.11783ZM739.476 1.11783H740.998V0.344087H739.476V1.11783ZM742.52 1.11783H744.043V0.344087H742.52V1.11783ZM745.565 1.11783H747.087V0.344087H745.565V1.11783ZM748.609 1.11783H750.132V0.344087H748.609V1.11783ZM751.654 1.11783H753.176V0.344087H751.654V1.11783ZM754.698 1.11783H756.221V0.344087H754.698V1.11783ZM757.743 1.11783H759.265V0.344087H757.743V1.11783ZM760.787 1.11783H762.31V0.344087H760.787V1.11783ZM763.832 1.11783H765.354V0.344087H763.832V1.11783ZM766.876 1.11783H767.637V0.344087H766.876V1.11783ZM767.637 1.11783C767.894 1.11783 768.15 1.11898 768.406 1.12128L768.413 0.347572C768.155 0.34525 767.896 0.344087 767.637 0.344087V1.11783ZM769.938 1.14882C770.448 1.16257 770.957 1.18086 771.464 1.20368L771.499 0.430716C770.987 0.407697 770.474 0.389232 769.959 0.375362L769.938 1.14882ZM772.993 1.28631C773.504 1.31851 774.013 1.35528 774.521 1.39659L774.583 0.625394C774.071 0.583711 773.557 0.5466 773.042 0.514101L772.993 1.28631ZM776.04 1.53404C776.55 1.5848 777.058 1.64011 777.565 1.69995L777.655 0.931552C777.144 0.871159 776.631 0.815332 776.117 0.764114L776.04 1.53404ZM779.082 1.89322C779.587 1.96222 780.091 2.03573 780.593 2.11369L780.712 1.34911C780.205 1.27043 779.697 1.19624 779.187 1.1266L779.082 1.89322ZM782.106 2.36284C782.609 2.45039 783.11 2.54242 783.61 2.63889L783.756 1.87918C783.252 1.78182 782.746 1.68893 782.239 1.60057L782.106 2.36284ZM785.108 2.94252C785.608 3.04864 786.107 3.15922 786.604 3.27423L786.778 2.52042C786.277 2.40435 785.774 2.29273 785.269 2.18563L785.108 2.94252ZM788.089 3.63247C788.584 3.75681 789.078 3.88558 789.57 4.01871L789.772 3.27183C789.276 3.13746 788.777 3.0075 788.277 2.88199L788.089 3.63247ZM791.044 4.43208C791.533 4.57424 792.021 4.72073 792.506 4.87153L792.736 4.13259C792.246 3.98039 791.754 3.83253 791.26 3.68905L791.044 4.43208ZM793.966 5.33941C794.45 5.49971 794.933 5.66432 795.413 5.83319L795.67 5.1032C795.185 4.93276 794.698 4.76662 794.209 4.60483L793.966 5.33941ZM796.851 6.35326C797.33 6.53147 797.807 6.71394 798.281 6.90062L798.564 6.18057C798.085 5.99216 797.604 5.80799 797.121 5.62812L796.851 6.35326ZM799.699 7.47323C800.17 7.66878 800.64 7.86851 801.107 8.07238L801.416 7.36322C800.945 7.15746 800.471 6.95587 799.995 6.75851L799.699 7.47323ZM802.504 8.69736C802.967 8.90981 803.428 9.12636 803.887 9.34697L804.222 8.64965C803.759 8.427 803.294 8.20843 802.826 7.99401L802.504 8.69736ZM805.261 10.0232C805.717 10.2527 806.17 10.4863 806.621 10.7238L806.982 10.0392C806.527 9.7995 806.069 9.56379 805.609 9.33216L805.261 10.0232ZM807.967 11.449C808.415 11.6951 808.859 11.9453 809.302 12.1994L809.687 11.5285C809.241 11.272 808.792 11.0196 808.341 10.7711L807.967 11.449ZM810.621 12.9733C811.058 13.2355 811.494 13.5017 811.926 13.7717L812.336 13.1153C811.899 12.8428 811.46 12.5742 811.018 12.3095L810.621 12.9733ZM813.217 14.5937C813.644 14.8716 814.069 15.1532 814.491 15.4386L814.925 14.7976C814.499 14.5096 814.07 14.2254 813.638 13.945L813.217 14.5937ZM815.752 16.3075C816.169 16.6009 816.583 16.898 816.995 17.1987L817.451 16.5739C817.036 16.2704 816.618 15.9706 816.196 15.6745L815.752 16.3075ZM818.222 18.1123C818.628 18.4208 819.032 18.7328 819.433 19.0485L819.911 18.4407C819.507 18.1222 819.1 17.8072 818.69 17.496L818.222 18.1123ZM820.625 20.0061C821.02 20.329 821.412 20.6555 821.801 20.9855L822.302 20.3955C821.909 20.0625 821.514 19.733 821.115 19.4071L820.625 20.0061ZM822.959 21.986C823.341 22.323 823.721 22.6635 824.098 23.0073L824.619 22.4359C824.239 22.0889 823.856 21.7454 823.47 21.4053L822.959 21.986ZM825.218 24.0493C825.589 24.4 825.956 24.754 826.32 25.1113L826.862 24.5593C826.494 24.1987 826.124 23.8414 825.75 23.4875L825.218 24.0493ZM827.401 26.1932C827.759 26.5571 828.113 26.9242 828.463 27.2945L829.025 26.7625C828.671 26.3888 828.314 26.0183 827.953 25.6511L827.401 26.1932ZM829.505 28.4151C829.849 28.7916 830.19 29.1713 830.527 29.5541L831.107 29.0428C830.767 28.6565 830.424 28.2733 830.077 27.8933L829.505 28.4151ZM831.527 30.7117C831.857 31.1005 832.184 31.4924 832.507 31.8873L833.106 31.3975C832.78 30.9989 832.45 30.6034 832.117 30.211L831.527 30.7117ZM833.464 33.0802C833.78 33.4808 834.092 33.8843 834.4 34.2908L835.017 33.823C834.706 33.4128 834.391 33.0056 834.072 32.6013L833.464 33.0802ZM835.314 35.5178C835.615 35.9294 835.912 36.3439 836.205 36.7612L836.838 36.3162C836.542 35.8951 836.242 35.4768 835.939 35.0613L835.314 35.5178ZM837.074 38.0215C837.359 38.4436 837.641 38.8684 837.919 39.296L838.568 38.8744C838.287 38.4429 838.003 38.0141 837.715 37.5881L837.074 38.0215ZM838.741 40.5866C839.011 41.0191 839.277 41.4543 839.539 41.892L840.203 41.4944C839.939 41.0526 839.67 40.6134 839.397 40.1769L838.741 40.5866ZM840.313 43.211C840.567 43.6533 840.818 44.098 841.064 44.5453L841.742 44.1722C841.493 43.7208 841.241 43.2719 840.984 42.8256L840.313 43.211ZM841.789 45.8917C842.026 46.3426 842.26 46.7959 842.49 47.2516L843.181 46.9036C842.949 46.4437 842.713 45.9862 842.474 45.5311L841.789 45.8917ZM843.166 48.6256C843.386 49.0844 843.603 49.5456 843.815 50.009L844.519 49.6865C844.304 49.2188 844.086 48.7534 843.863 48.2903L843.166 48.6256ZM844.44 51.406C844.644 51.8731 844.844 52.3425 845.039 52.8141L845.754 52.5177C845.557 52.0417 845.355 51.568 845.15 51.0965L844.44 51.406ZM845.612 54.2316C845.799 54.7062 845.981 55.183 846.159 55.6618L846.885 55.3919C846.705 54.9086 846.521 54.4274 846.332 53.9484L845.612 54.2316ZM846.68 57.0994C846.848 57.58 847.013 58.0625 847.173 58.547L847.908 58.304C847.746 57.815 847.58 57.3279 847.41 56.8429L846.68 57.0994ZM847.641 60.0062C847.792 60.4919 847.939 60.9794 848.081 61.4688L848.824 61.253C848.68 60.759 848.532 60.267 848.38 59.7768L847.641 60.0062ZM848.494 62.9425C848.627 63.4345 848.756 63.9283 848.88 64.4238L849.631 64.2355C849.505 63.7353 849.375 63.2369 849.241 62.7404L848.494 62.9425ZM849.239 65.9091C849.354 66.4059 849.464 66.9044 849.57 67.4045L850.327 67.2439C850.22 66.7391 850.108 66.236 849.992 65.7346L849.239 65.9091ZM849.874 68.9031C849.97 69.4027 850.062 69.9039 850.15 70.4067L850.912 70.274C850.824 69.7665 850.731 69.2607 850.634 68.7564L849.874 68.9031ZM850.399 71.9196C850.477 72.4217 850.551 72.9253 850.62 73.4304L851.386 73.3256C851.317 72.8159 851.242 72.3077 851.164 71.8009L850.399 71.9196ZM850.813 74.948C850.873 75.4548 850.928 75.963 850.979 76.4725L851.749 76.3958C851.697 75.8816 851.642 75.3688 851.581 74.8573L850.813 74.948ZM851.116 77.992C851.157 78.4998 851.194 79.0089 851.226 79.5193L851.999 79.4705C851.966 78.9555 851.929 78.4418 851.887 77.9293L851.116 77.992ZM851.309 81.0488C851.332 81.5561 851.35 82.0646 851.364 82.5743L852.137 82.5534C852.124 82.0391 852.105 81.526 852.082 81.014L851.309 81.0488ZM851.391 84.1066C851.394 84.3626 851.395 84.6188 851.395 84.8753H852.169C852.169 84.6165 852.167 84.3579 852.165 84.0997L851.391 84.1066ZM851.395 84.8753V85.6651H852.169V84.8753H851.395ZM851.395 87.2448V88.8245H852.169V87.2448H851.395ZM851.395 90.4043V91.984H852.169V90.4043H851.395ZM851.395 93.5637V94.3535H852.169V93.5637H851.395ZM851.395 94.3535C851.395 94.6136 851.396 94.8733 851.399 95.1327L852.173 95.1248C852.17 94.868 852.169 94.6109 852.169 94.3535H851.395ZM851.43 96.6853C851.446 97.2016 851.467 97.7166 851.493 98.2303L852.266 98.1909C852.24 97.6825 852.219 97.1728 852.204 96.6617L851.43 96.6853ZM851.588 99.7833C851.625 100.3 851.667 100.814 851.715 101.328L852.485 101.257C852.438 100.749 852.397 100.239 852.36 99.7281L851.588 99.7833ZM851.873 102.871C851.931 103.386 851.995 103.9 852.063 104.412L852.83 104.309C852.762 103.802 852.699 103.294 852.642 102.784L851.873 102.871ZM852.284 105.944C852.364 106.457 852.449 106.968 852.539 107.478L853.301 107.343C853.212 106.839 853.128 106.333 853.049 105.825L852.284 105.944ZM852.823 109.001C852.924 109.509 853.03 110.016 853.141 110.52L853.896 110.354C853.787 109.855 853.682 109.354 853.583 108.85L852.823 109.001ZM853.489 112.032C853.61 112.535 853.737 113.036 853.868 113.535L854.617 113.338C854.487 112.844 854.361 112.348 854.241 111.851L853.489 112.032ZM854.28 115.033C854.422 115.53 854.569 116.025 854.721 116.517L855.461 116.289C855.31 115.802 855.165 115.312 855.024 114.82L854.28 115.033ZM855.195 117.997C855.358 118.488 855.526 118.977 855.698 119.464L856.428 119.205C856.257 118.723 856.091 118.239 855.929 117.753L855.195 117.997ZM856.233 120.92C856.416 121.404 856.604 121.886 856.797 122.366L857.515 122.077C857.324 121.602 857.138 121.125 856.956 120.646L856.233 120.92ZM857.391 123.797C857.594 124.274 857.802 124.748 858.015 125.219L858.72 124.901C858.51 124.434 858.304 123.965 858.102 123.494L857.391 123.797ZM858.668 126.625C858.891 127.093 859.119 127.557 859.351 128.019L860.042 127.672C859.812 127.214 859.587 126.755 859.366 126.292L858.668 126.625ZM860.062 129.398C860.304 129.855 860.55 130.31 860.801 130.761L861.478 130.385C861.229 129.938 860.985 129.489 860.746 129.036L860.062 129.398ZM861.569 132.11C861.83 132.556 862.095 133 862.364 133.441L863.024 133.037C862.758 132.601 862.495 132.162 862.238 131.72L861.569 132.11ZM863.187 134.757C863.466 135.192 863.749 135.625 864.037 136.054L864.68 135.624C864.395 135.199 864.115 134.771 863.839 134.34L863.187 134.757ZM864.913 137.335C865.21 137.759 865.511 138.179 865.816 138.597L866.44 138.14C866.138 137.727 865.841 137.311 865.547 136.891L864.913 137.335ZM866.744 139.839C867.058 140.251 867.376 140.659 867.698 141.063L868.303 140.581C867.984 140.181 867.67 139.777 867.359 139.37L866.744 139.839ZM868.676 142.267C869.006 142.665 869.341 143.059 869.679 143.45L870.264 142.944C869.929 142.557 869.598 142.166 869.271 141.772L868.676 142.267ZM870.707 144.612C871.053 144.996 871.403 145.377 871.758 145.753L872.321 145.223C871.971 144.851 871.624 144.474 871.281 144.094L870.707 144.612ZM872.832 146.873C873.194 147.242 873.559 147.608 873.929 147.97L874.47 147.417C874.105 147.059 873.743 146.697 873.384 146.331L872.832 146.873ZM875.048 149.044C875.425 149.398 875.805 149.748 876.189 150.095L876.707 149.52C876.327 149.177 875.951 148.831 875.578 148.48L875.048 149.044ZM877.351 151.122C877.742 151.46 878.137 151.795 878.535 152.125L879.029 151.53C878.635 151.203 878.245 150.872 877.858 150.537L877.351 151.122ZM879.738 153.104C880.143 153.426 880.551 153.744 880.962 154.058L881.431 153.442C881.024 153.132 880.621 152.817 880.22 152.498L879.738 153.104ZM882.205 154.986C882.622 155.291 883.043 155.592 883.466 155.888L883.91 155.254C883.491 154.961 883.074 154.663 882.661 154.361L882.205 154.986ZM884.747 156.765C885.176 157.052 885.609 157.335 886.044 157.614L886.462 156.962C886.03 156.686 885.602 156.406 885.177 156.122L884.747 156.765ZM887.36 158.437C887.801 158.707 888.245 158.972 888.692 159.232L889.081 158.564C888.639 158.306 888.2 158.044 887.764 157.777L887.36 158.437ZM890.04 160C890.492 160.251 890.946 160.498 891.404 160.739L891.765 160.056C891.313 159.816 890.863 159.572 890.416 159.324L890.04 160ZM892.782 161.45C893.244 161.683 893.709 161.91 894.176 162.133L894.509 161.435C894.047 161.214 893.587 160.989 893.13 160.759L892.782 161.45ZM895.582 162.786C896.054 162.999 896.527 163.207 897.004 163.411L897.308 162.699C896.836 162.498 896.367 162.292 895.901 162.081L895.582 162.786ZM898.436 164.004C898.915 164.197 899.397 164.386 899.881 164.569L900.155 163.845C899.676 163.664 899.199 163.478 898.725 163.287L898.436 164.004ZM901.338 165.103C901.824 165.276 902.313 165.444 902.805 165.606L903.048 164.872C902.562 164.711 902.078 164.545 901.597 164.374L901.338 165.103ZM904.284 166.08C904.777 166.232 905.272 166.379 905.769 166.521L905.982 165.778C905.49 165.637 905 165.491 904.512 165.341L904.284 166.08ZM907.266 166.933C907.765 167.064 908.266 167.191 908.769 167.312L908.951 166.56C908.453 166.44 907.957 166.315 907.464 166.185L907.266 166.933ZM910.281 167.661C910.786 167.772 911.292 167.877 911.801 167.978L911.951 167.219C911.448 167.119 910.946 167.015 910.447 166.905L910.281 167.661ZM913.324 168.263C913.833 168.353 914.344 168.437 914.857 168.517L914.976 167.752C914.468 167.674 913.962 167.59 913.458 167.501L913.324 168.263ZM916.39 168.738C916.902 168.807 917.415 168.87 917.93 168.928L918.017 168.16C917.507 168.102 916.999 168.039 916.492 167.971L916.39 168.738ZM919.474 169.087C919.987 169.134 920.502 169.176 921.018 169.213L921.073 168.441C920.562 168.405 920.053 168.363 919.545 168.316L919.474 169.087ZM922.571 169.308C923.085 169.334 923.6 169.355 924.116 169.371L924.14 168.598C923.629 168.582 923.119 168.561 922.61 168.535L922.571 169.308ZM925.669 169.402C925.928 169.405 926.188 169.406 926.448 169.406V168.633C926.19 168.633 925.933 168.631 925.677 168.629L925.669 169.402ZM926.448 169.406H927.211V168.633H926.448V169.406ZM928.737 169.406H930.263V168.633H928.737V169.406ZM931.789 169.406H933.315V168.633H931.789V169.406ZM934.841 169.406H936.367V168.633H934.841V169.406ZM937.893 169.406H939.419V168.633H937.893V169.406ZM940.945 169.406H942.471V168.633H940.945V169.406ZM943.997 169.406H945.523V168.633H943.997V169.406ZM947.049 169.406H948.575V168.633H947.049V169.406ZM950.101 169.406H951.627V168.633H950.101V169.406ZM953.153 169.406H954.679V168.633H953.153V169.406ZM956.205 169.406H957.731V168.633H956.205V169.406ZM959.257 169.406H960.782V168.633H959.257V169.406ZM962.308 169.406H963.834V168.633H962.308V169.406ZM965.36 169.406H966.886V168.633H965.36V169.406ZM968.412 169.406H969.938V168.633H968.412V169.406ZM971.464 169.406H972.99V168.633H971.464V169.406ZM974.516 169.406H976.042V168.633H974.516V169.406ZM977.568 169.406H979.094V168.633H977.568V169.406ZM980.62 169.406H981.383V168.633H980.62V169.406ZM981.383 169.406C981.648 169.406 981.912 169.401 982.174 169.391L982.144 168.618C981.892 168.628 981.638 168.633 981.383 168.633V169.406ZM983.749 169.269C984.275 169.207 984.796 169.125 985.309 169.024L985.159 168.264C984.665 168.362 984.165 168.441 983.659 168.5L983.749 169.269ZM986.846 168.656C987.355 168.512 987.856 168.35 988.348 168.168L988.08 167.442C987.607 167.617 987.126 167.773 986.636 167.911L986.846 168.656ZM989.808 167.563C990.287 167.341 990.757 167.102 991.215 166.844L990.836 166.17C990.396 166.417 989.945 166.647 989.484 166.86L989.808 167.563ZM992.561 166.018C992.999 165.724 993.425 165.414 993.838 165.088L993.359 164.481C992.962 164.794 992.552 165.093 992.131 165.375L992.561 166.018ZM995.039 164.062C995.426 163.704 995.798 163.332 996.156 162.945L995.588 162.42C995.244 162.791 994.886 163.15 994.514 163.494L995.039 164.062ZM997.182 161.744C997.508 161.331 997.819 160.905 998.112 160.467L997.469 160.036C997.187 160.458 996.889 160.868 996.575 161.265L997.182 161.744ZM998.939 159.121C999.196 158.663 999.435 158.193 999.657 157.714L998.954 157.389C998.742 157.85 998.511 158.302 998.264 158.742L998.939 159.121ZM1000.26 156.254C1000.44 155.762 1000.61 155.261 1000.75 154.752L1000.01 154.542C999.867 155.032 999.711 155.513 999.536 155.986L1000.26 156.254ZM1001.12 153.215C1001.22 152.702 1001.3 152.181 1001.36 151.655L1000.59 151.565C1000.54 152.071 1000.46 152.571 1000.36 153.065L1001.12 153.215ZM1001.49 150.08C1001.5 149.818 1001.5 149.554 1001.5 149.289H1000.73C1000.73 149.544 1000.72 149.798 1000.71 150.05L1001.49 150.08ZM1001.5 149.289C1001.5 149.034 1001.51 148.781 1001.52 148.528L1000.74 148.498C1000.73 148.761 1000.73 149.024 1000.73 149.289H1001.5ZM1001.63 147.014C1001.69 146.507 1001.77 146.007 1001.87 145.514L1001.11 145.363C1001.01 145.877 1000.93 146.397 1000.86 146.924L1001.63 147.014ZM1002.22 144.036C1002.36 143.547 1002.52 143.065 1002.69 142.592L1001.97 142.324C1001.78 142.816 1001.62 143.317 1001.48 143.827L1002.22 144.036ZM1003.27 141.189C1003.49 140.728 1003.72 140.277 1003.96 139.836L1003.29 139.458C1003.03 139.916 1002.79 140.385 1002.57 140.865L1003.27 141.189ZM1004.76 138.542C1005.04 138.12 1005.34 137.711 1005.65 137.314L1005.05 136.834C1004.72 137.247 1004.41 137.673 1004.12 138.111L1004.76 138.542ZM1006.64 136.159C1006.98 135.787 1007.34 135.429 1007.71 135.085L1007.19 134.517C1006.8 134.874 1006.43 135.247 1006.07 135.633L1006.64 136.159ZM1008.87 134.097C1009.27 133.784 1009.68 133.486 1010.1 133.204L1009.67 132.561C1009.23 132.854 1008.8 133.164 1008.39 133.49L1008.87 134.097ZM1011.39 132.409C1011.83 132.161 1012.28 131.931 1012.74 131.718L1012.42 131.016C1011.94 131.237 1011.47 131.477 1011.01 131.734L1011.39 132.409ZM1014.15 131.136C1014.62 130.962 1015.1 130.805 1015.59 130.667L1015.38 129.923C1014.87 130.066 1014.37 130.229 1013.88 130.41L1014.15 131.136ZM1017.07 130.314C1017.56 130.216 1018.06 130.137 1018.57 130.078L1018.48 129.31C1017.95 129.371 1017.43 129.453 1016.92 129.555L1017.07 130.314ZM1020.08 129.96C1020.34 129.951 1020.59 129.946 1020.84 129.946V129.172C1020.58 129.172 1020.32 129.177 1020.05 129.187L1020.08 129.96ZM1020.84 129.946H1021.62V129.172H1020.84V129.946ZM1023.17 129.946H1024.72V129.172H1023.17V129.946ZM1026.27 129.946H1027.82V129.172H1026.27V129.946ZM1029.37 129.946H1030.92V129.172H1029.37V129.946ZM1032.47 129.946H1034.02V129.172H1032.47V129.946ZM1035.57 129.946H1037.11V129.172H1035.57V129.946ZM1038.66 129.946H1040.21V129.172H1038.66V129.946ZM1041.76 129.946H1043.31V129.172H1041.76V129.946ZM1044.86 129.946H1046.41V129.172H1044.86V129.946ZM1047.96 129.946H1049.51V129.172H1047.96V129.946ZM1051.06 129.946H1052.61V129.172H1051.06V129.946ZM1054.16 129.946H1055.71V129.172H1054.16V129.946ZM1057.26 129.946H1058.81V129.172H1057.26V129.946ZM1060.36 129.946H1061.91V129.172H1060.36V129.946ZM1063.46 129.946H1065.01V129.172H1063.46V129.946ZM1066.56 129.946H1068.11V129.172H1066.56V129.946ZM1069.66 129.946H1071.21V129.172H1069.66V129.946ZM1072.75 129.946H1074.3V129.172H1072.75V129.946ZM1075.85 129.946H1077.4V129.172H1075.85V129.946ZM1078.95 129.946H1080.5V129.172H1078.95V129.946ZM1082.05 129.946H1083.6V129.172H1082.05V129.946ZM1085.15 129.946H1086.7V129.172H1085.15V129.946ZM1088.25 129.946H1089.8V129.172H1088.25V129.946ZM1091.35 129.946H1092.9V129.172H1091.35V129.946ZM1094.45 129.946H1096V129.172H1094.45V129.946ZM1097.55 129.946H1099.1V129.172H1097.55V129.946ZM1100.65 129.946H1102.2V129.172H1100.65V129.946ZM1103.75 129.946H1105.3V129.172H1103.75V129.946ZM1106.85 129.946H1108.39V129.172H1106.85V129.946ZM1109.94 129.946H1111.49V129.172H1109.94V129.946ZM1113.04 129.946H1114.59V129.172H1113.04V129.946ZM1116.14 129.946H1117.69V129.172H1116.14V129.946ZM1119.24 129.946H1120.79V129.172H1119.24V129.946ZM1122.34 129.946H1123.89V129.172H1122.34V129.946ZM1125.44 129.946H1126.99V129.172H1125.44V129.946ZM1128.54 129.946H1130.09V129.172H1128.54V129.946ZM1131.64 129.946H1133.19V129.172H1131.64V129.946ZM1134.74 129.946H1136.29V129.172H1134.74V129.946ZM1137.84 129.946H1139.39V129.172H1137.84V129.946ZM1140.94 129.946H1142.49V129.172H1140.94V129.946ZM1144.03 129.946H1145.58V129.172H1144.03V129.946ZM1147.13 129.946H1148.68V129.172H1147.13V129.946ZM1150.23 129.946H1151.78V129.172H1150.23V129.946ZM1153.33 129.946H1154.88V129.172H1153.33V129.946ZM1156.43 129.946H1157.98V129.172H1156.43V129.946ZM1159.53 129.946H1161.08V129.172H1159.53V129.946ZM1162.63 129.946H1164.18V129.172H1162.63V129.946ZM1165.73 129.946H1167.28V129.172H1165.73V129.946ZM1168.83 129.946H1170.38V129.172H1168.83V129.946ZM1171.93 129.946H1173.48V129.172H1171.93V129.946ZM1175.03 129.946H1176.58V129.172H1175.03V129.946ZM1178.13 129.946H1179.68V129.172H1178.13V129.946ZM1181.22 129.946H1182.77V129.172H1181.22V129.946ZM1184.32 129.946H1185.87V129.172H1184.32V129.946ZM1187.42 129.946H1188.97V129.172H1187.42V129.946ZM1190.52 129.946H1192.07V129.172H1190.52V129.946ZM1193.62 129.946H1195.17V129.172H1193.62V129.946ZM1196.72 129.946H1198.27V129.172H1196.72V129.946ZM1199.82 129.946H1201.37V129.172H1199.82V129.946ZM1202.92 129.946H1204.47V129.172H1202.92V129.946ZM1206.02 129.946H1207.57V129.172H1206.02V129.946ZM1209.12 129.946H1210.67V129.172H1209.12V129.946ZM1212.22 129.946H1213.77V129.172H1212.22V129.946ZM1215.32 129.946H1216.86V129.172H1215.32V129.946ZM1218.41 129.946H1219.96V129.172H1218.41V129.946ZM1221.51 129.946H1223.06V129.172H1221.51V129.946ZM1224.61 129.946H1226.16V129.172H1224.61V129.946ZM1227.71 129.946H1229.26V129.172H1227.71V129.946ZM1230.81 129.946H1232.36V129.172H1230.81V129.946ZM1233.91 129.946H1235.46V129.172H1233.91V129.946ZM1237.01 129.946H1238.56V129.172H1237.01V129.946ZM1240.11 129.946H1241.66V129.172H1240.11V129.946ZM1243.21 129.946H1244.76V129.172H1243.21V129.946ZM1246.31 129.946H1247.86V129.172H1246.31V129.946ZM1249.41 129.946H1250.96V129.172H1249.41V129.946ZM1252.51 129.946H1254.05V129.172H1252.51V129.946ZM1255.6 129.946H1257.15V129.172H1255.6V129.946ZM1258.7 129.946H1260.25V129.172H1258.7V129.946ZM1261.8 129.946H1263.35V129.172H1261.8V129.946ZM1264.9 129.946H1266.45V129.172H1264.9V129.946ZM1268 129.946H1269.55V129.172H1268V129.946ZM1271.1 129.946H1272.65V129.172H1271.1V129.946ZM1274.2 129.946H1275.75V129.172H1274.2V129.946ZM1277.3 129.946H1278.85V129.172H1277.3V129.946ZM1280.4 129.946H1281.95V129.172H1280.4V129.946ZM1283.5 129.946H1285.05V129.172H1283.5V129.946ZM1286.6 129.946H1288.15V129.172H1286.6V129.946ZM1289.69 129.946H1291.24V129.172H1289.69V129.946ZM1292.79 129.946H1294.34V129.172H1292.79V129.946ZM1295.89 129.946H1297.44V129.172H1295.89V129.946ZM1298.99 129.946H1300.54V129.172H1298.99V129.946ZM1302.09 129.946H1303.64V129.172H1302.09V129.946ZM1305.19 129.946H1306.74V129.172H1305.19V129.946ZM1308.29 129.946H1309.84V129.172H1308.29V129.946ZM1311.39 129.946H1312.94V129.172H1311.39V129.946ZM1314.49 129.946H1316.04V129.172H1314.49V129.946ZM1317.59 129.946H1319.14V129.172H1317.59V129.946ZM1320.69 129.946H1322.24V129.172H1320.69V129.946ZM1323.79 129.946H1325.33V129.172H1323.79V129.946ZM1326.88 129.946H1328.43V129.172H1326.88V129.946ZM1329.98 129.946H1331.53V129.172H1329.98V129.946ZM1333.08 129.946H1334.63V129.172H1333.08V129.946ZM1336.18 129.946H1337.73V129.172H1336.18V129.946ZM1339.28 129.946H1340.83V129.172H1339.28V129.946ZM1342.38 129.946H1343.93V129.172H1342.38V129.946ZM1345.48 129.946H1347.03V129.172H1345.48V129.946ZM1348.58 129.946H1350.13V129.172H1348.58V129.946ZM1351.68 129.946H1353.23V129.172H1351.68V129.946ZM1354.78 129.946H1356.33V129.172H1354.78V129.946ZM1357.88 129.946H1359.43V129.172H1357.88V129.946ZM1360.97 129.946H1362.52V129.172H1360.97V129.946ZM1364.07 129.946H1365.62V129.172H1364.07V129.946ZM1367.17 129.946H1368.72V129.172H1367.17V129.946ZM1370.27 129.946H1371.82V129.172H1370.27V129.946ZM1373.37 129.946H1374.92V129.172H1373.37V129.946ZM1376.47 129.946H1378.02V129.172H1376.47V129.946ZM1379.57 129.946H1381.12V129.172H1379.57V129.946ZM1382.67 129.946H1384.22V129.172H1382.67V129.946ZM1385.77 129.946H1387.32V129.172H1385.77V129.946ZM1388.87 129.946H1390.42V129.172H1388.87V129.946ZM1391.97 129.946H1393.52V129.172H1391.97V129.946ZM1395.07 129.946H1396.61V129.172H1395.07V129.946ZM1398.16 129.946H1399.71V129.172H1398.16V129.946ZM1401.26 129.946H1402.81V129.172H1401.26V129.946ZM1404.36 129.946H1405.91V129.172H1404.36V129.946ZM1407.46 129.946H1409.01V129.172H1407.46V129.946ZM1410.56 129.946H1412.11V129.172H1410.56V129.946ZM1413.66 129.946H1415.21V129.172H1413.66V129.946ZM1416.76 129.946H1418.31V129.172H1416.76V129.946ZM1419.86 129.946H1421.41V129.172H1419.86V129.946ZM1422.96 129.946H1424.51V129.172H1422.96V129.946ZM1426.06 129.946H1427.61V129.172H1426.06V129.946ZM1429.16 129.946H1430.7V129.172H1429.16V129.946ZM1432.25 129.946H1433.8V129.172H1432.25V129.946ZM1435.35 129.946H1436.9V129.172H1435.35V129.946ZM1438.45 129.946H1440V129.172H1438.45V129.946ZM1441.55 129.946H1443.1V129.172H1441.55V129.946ZM1444.65 129.946H1446.2V129.172H1444.65V129.946ZM1447.75 129.946H1449.3V129.172H1447.75V129.946ZM1450.85 129.946H1452.4V129.172H1450.85V129.946ZM1453.95 129.946H1455.5V129.172H1453.95V129.946ZM1457.05 129.946H1458.6V129.172H1457.05V129.946ZM1460.15 129.946H1461.7V129.172H1460.15V129.946ZM1463.25 129.946H1464.8V129.172H1463.25V129.946ZM1466.34 129.946H1467.89V129.172H1466.34V129.946ZM1469.44 129.946H1470.99V129.172H1469.44V129.946ZM1472.54 129.946H1474.09V129.172H1472.54V129.946ZM1475.64 129.946H1477.19V129.172H1475.64V129.946ZM1478.74 129.946H1480.29V129.172H1478.74V129.946ZM1481.84 129.946H1483.39V129.172H1481.84V129.946ZM1484.94 129.946H1486.49V129.172H1484.94V129.946ZM1488.04 129.946H1489.59V129.172H1488.04V129.946ZM1491.14 129.946H1492.69V129.172H1491.14V129.946ZM1494.24 129.946H1495.79V129.172H1494.24V129.946ZM1497.34 129.946H1498.89V129.172H1497.34V129.946ZM1500.44 129.946H1501.98V129.172H1500.44V129.946ZM1503.53 129.946H1505.08V129.172H1503.53V129.946ZM1506.63 129.946H1508.18V129.172H1506.63V129.946ZM1509.73 129.946H1511.28V129.172H1509.73V129.946ZM1512.83 129.946H1514.38V129.172H1512.83V129.946ZM1515.93 129.946H1517.48V129.172H1515.93V129.946ZM1519.03 129.946H1520.58V129.172H1519.03V129.946ZM1522.13 129.946H1523.68V129.172H1522.13V129.946ZM1525.23 129.946H1526.78V129.172H1525.23V129.946ZM1528.33 129.946H1529.88V129.172H1528.33V129.946ZM1531.43 129.946H1532.98V129.172H1531.43V129.946ZM1534.53 129.946H1536.08V129.172H1534.53V129.946ZM1537.62 129.946H1539.17V129.172H1537.62V129.946ZM1540.72 129.946H1541.5V129.172H1540.72V129.946Z" fill="black"/>
</svg>
