<svg width="818" height="115" viewBox="0 0 818 115" fill="none" xmlns="http://www.w3.org/2000/svg">
<path d="M86.1052 0H56.425L0 114.318H36.8556L46.1511 95.5637L96.5422 95.8899L105.675 114.318H142.53L86.1052 0ZM62.4589 62.622L71.2651 44.6834L80.2344 62.785L62.4589 62.622Z" fill="black"/>
<path d="M257.789 73.8744C256.485 71.2651 255.017 68.8189 253.223 66.5358C255.017 64.0897 256.322 61.4804 257.463 58.8712C259.746 53.6527 260.888 48.108 260.888 42.4003C260.888 36.6926 259.746 31.1479 257.463 25.9294C255.343 20.874 252.408 16.3078 248.494 12.3939C244.58 8.48007 240.014 5.54466 234.958 3.42464C229.74 1.14155 224.195 0 218.488 0H180.49H178.86H169.564C169.238 0 169.075 0 168.912 0H147.549V21.0371C147.549 21.3632 147.549 21.6894 147.549 22.0155V62.622C147.549 63.2743 147.549 63.7635 147.549 64.4158V114.318H180.654V84.6375H222.238C225.663 84.6375 227.946 87.0837 227.946 88.7145V114.318H261.051V88.7145C261.051 83.496 259.909 78.6036 257.789 73.8744ZM218.488 51.5327H180.654V33.1048H218.488C223.706 33.1048 227.783 37.1818 227.783 42.4003C227.783 47.4557 223.706 51.5327 218.488 51.5327Z" fill="black"/>
<path d="M355.378 70.4497C350.974 77.1359 343.473 81.0498 335.482 81.0498H325.208C311.999 81.0498 301.236 70.2866 301.236 57.2404C301.236 44.0311 311.999 33.2679 325.208 33.2679H335.482C343.473 33.2679 350.811 37.1818 355.378 43.7049L382.612 24.9509C372.012 9.45853 354.399 0.163076 335.482 0.163076H325.208C317.543 0.163076 310.042 1.63078 303.03 4.56618C296.18 7.50159 290.146 11.5785 284.928 16.797C279.709 22.0155 275.632 28.2125 272.697 34.8987C269.762 42.0741 268.294 49.4127 268.294 57.0773C268.294 64.9051 269.762 72.2436 272.697 79.419C275.632 86.1052 279.709 92.3022 284.928 97.5207C290.146 102.739 296.18 106.816 303.03 109.752C310.042 112.687 317.543 114.155 325.208 114.155H335.482C354.562 114.155 372.338 104.696 382.938 88.8775L355.378 70.4497Z" fill="black"/>
<path d="M471.615 0V40.6064H423.833V0H390.892V114.318H423.833V73.7113H471.615V114.318H504.72V0H471.615Z" fill="black"/>
<path d="M519.889 0V114.318H552.831V0H519.889Z" fill="black"/>
<path d="M662.896 0.326162L628.649 69.4713L594.403 0.326162H557.547L613.809 113.992H643.489L699.751 0.326162H662.896Z" fill="black"/>
<rect x="704.012" y="0.166382" width="113.988" height="33.2812" fill="black"/>
<rect x="704.012" y="40.5198" width="113.988" height="33.2812" fill="black"/>
<rect x="704.012" y="80.8734" width="113.988" height="33.2812" fill="black"/>
</svg>
