<svg width="1210" height="170" viewBox="0 0 1210 170" fill="none" xmlns="http://www.w3.org/2000/svg">
<path d="M127.368 0H83.4648L0 169.101H54.5175L68.2675 141.36L142.807 141.842L156.316 169.101H210.833L127.368 0ZM92.3903 92.6315L105.417 66.0964L118.684 92.8727L92.3903 92.6315Z" fill="white"/>
<path d="M381.327 109.276C379.397 105.417 377.226 101.798 374.572 98.421C377.226 94.8026 379.155 90.9429 380.844 87.0833C384.221 79.364 385.91 71.1622 385.91 62.7192C385.91 54.2763 384.221 46.0745 380.844 38.3552C377.708 30.8772 373.366 24.1228 367.577 18.3333C361.787 12.5439 355.033 8.20176 347.555 5.06579C339.835 1.6886 331.634 0 323.191 0H266.985H264.572H250.822C250.34 0 250.099 0 249.857 0H218.257V31.1184C218.257 31.6009 218.257 32.0833 218.257 32.5658V92.6315C218.257 93.5964 218.257 94.3201 218.257 95.285V169.101H267.226V125.197H328.739C333.805 125.197 337.182 128.816 337.182 131.228V169.101H386.151V131.228C386.151 123.509 384.462 116.272 381.327 109.276ZM323.191 76.228H267.226V48.9693H323.191C330.91 48.9693 336.941 55 336.941 62.7192C336.941 70.1973 330.91 76.228 323.191 76.228Z" fill="white"/>
<path d="M525.681 104.21C519.167 114.101 508.071 119.89 496.251 119.89H481.053C461.514 119.89 445.593 103.969 445.593 84.671C445.593 65.1315 461.514 49.2105 481.053 49.2105H496.251C508.071 49.2105 518.926 54.9999 525.681 64.6491L565.966 36.9079C550.286 13.9912 524.233 0.241224 496.251 0.241224H481.053C469.716 0.241224 458.619 2.41228 448.246 6.75438C438.115 11.0965 429.189 17.1272 421.47 24.8465C413.751 32.5658 407.72 41.7324 403.378 51.6228C399.036 62.2368 396.865 73.092 396.865 84.4297C396.865 96.0087 399.036 106.864 403.378 117.478C407.72 127.368 413.751 136.535 421.47 144.254C429.189 151.974 438.115 158.004 448.246 162.346C458.619 166.688 469.716 168.859 481.053 168.859H496.251C524.474 168.859 550.768 154.868 566.448 131.469L525.681 104.21Z" fill="white"/>
<path d="M697.621 0V60.0657H626.942V0H578.214V169.101H626.942V109.035H697.621V169.101H746.591V0H697.621Z" fill="white"/>
<path d="M769.029 0V169.101H817.757V0H769.029Z" fill="white"/>
<path d="M980.567 0.482464L929.909 102.763L879.251 0.482464H824.733L907.957 168.618H951.86L1035.08 0.482464H980.567Z" fill="white"/>
<rect x="1041.39" y="0.246094" width="168.613" height="49.2302" fill="white"/>
<rect x="1041.39" y="59.9377" width="168.613" height="49.2302" fill="white"/>
<rect x="1041.39" y="119.629" width="168.613" height="49.2302" fill="white"/>
</svg>
