<svg width="33" height="41" viewBox="0 0 33 41" fill="none" xmlns="http://www.w3.org/2000/svg">
<path d="M1.22773 1.32471H20.4753L31.4709 12.234L31.0394 39.748L0.907715 39.9206L1.22773 1.32471Z" fill="#F1EFE5"/>
<path d="M17.0056 24.5996H25.441C25.9135 24.5996 26.2966 24.9827 26.2966 25.4552V34.9693C26.2966 35.4418 25.9135 35.8249 25.441 35.8249H17.0056C16.5331 35.8249 16.15 35.4418 16.15 34.9693V25.4552C16.15 24.9827 16.5331 24.5996 17.0056 24.5996Z" fill="#649F8E" stroke="black"/>
<path d="M20.8922 1.32496L21.0432 11.5151L31.4707 11.418L21.0432 1.08765" fill="#F9A779"/>
<path d="M32.1147 11.6904C32.1111 11.6257 32.1003 11.5646 32.0788 11.507C32.0716 11.4855 32.0644 11.4603 32.0536 11.4387C32.0176 11.3632 31.9745 11.2913 31.9134 11.2266L21.094 0.407213C21.0329 0.346087 20.9574 0.299342 20.8819 0.263386C20.8603 0.252599 20.8423 0.249004 20.8207 0.241812C20.7596 0.220238 20.6949 0.205856 20.6266 0.20226C20.6122 0.20226 20.5978 0.195068 20.587 0.195068H1.11287C0.71375 0.195068 0.390137 0.518678 0.390137 0.917797V39.8625C0.390137 40.2616 0.71375 40.5852 1.11287 40.5852H31.4028C31.8019 40.5852 32.1255 40.2616 32.1255 39.8625V11.7372C32.1255 11.7372 32.1183 11.7084 32.1147 11.6904ZM29.6625 11.0144H21.3061V2.6581L29.6625 11.0144ZM1.8356 39.1398V1.63693H19.8643V11.7336C19.8643 12.1327 20.1879 12.4563 20.587 12.4563H30.6837V39.1398H1.8356Z" fill="black"/>
<path d="M6.15718 5.96597H14.812C15.2111 5.96597 15.5347 5.64236 15.5347 5.24324C15.5347 4.84412 15.2111 4.52051 14.812 4.52051H6.15718C5.75806 4.52051 5.43445 4.84412 5.43445 5.24324C5.43445 5.64236 5.75806 5.96597 6.15718 5.96597Z" fill="black"/>
<path d="M6.15718 11.0148H14.812C15.2111 11.0148 15.5347 10.6912 15.5347 10.2921C15.5347 9.89295 15.2111 9.56934 14.812 9.56934H6.15718C5.75806 9.56934 5.43445 9.89295 5.43445 10.2921C5.43445 10.6912 5.75806 11.0148 6.15718 11.0148Z" fill="black"/>
<path d="M26.3505 14.6216H6.15718C5.75806 14.6216 5.43445 14.9452 5.43445 15.3443C5.43445 15.7434 5.75806 16.067 6.15718 16.067H26.3505C26.7496 16.067 27.0732 15.7434 27.0732 15.3443C27.0732 14.9452 26.7496 14.6216 26.3505 14.6216Z" fill="black"/>
<path d="M26.3505 19.6694H6.15718C5.75806 19.6694 5.43445 19.993 5.43445 20.3922C5.43445 20.7913 5.75806 21.1149 6.15718 21.1149H26.3505C26.7496 21.1149 27.0732 20.7913 27.0732 20.3922C27.0732 19.993 26.7496 19.6694 26.3505 19.6694Z" fill="black"/>
<path d="M11.9678 24.7178H6.15718C5.75806 24.7178 5.43445 25.0414 5.43445 25.4405C5.43445 25.8396 5.75806 26.1632 6.15718 26.1632H11.9678C12.3669 26.1632 12.6905 25.8396 12.6905 25.4405C12.6905 25.0414 12.3669 24.7178 11.9678 24.7178Z" fill="black"/>
<path d="M11.9678 29.7664H6.15718C5.75806 29.7664 5.43445 30.09 5.43445 30.4891C5.43445 30.8882 5.75806 31.2118 6.15718 31.2118H11.9678C12.3669 31.2118 12.6905 30.8882 12.6905 30.4891C12.6905 30.09 12.3669 29.7664 11.9678 29.7664Z" fill="black"/>
<path d="M11.9678 34.8142H6.15718C5.75806 34.8142 5.43445 35.1378 5.43445 35.5369C5.43445 35.9361 5.75806 36.2597 6.15718 36.2597H11.9678C12.3669 36.2597 12.6905 35.9361 12.6905 35.5369C12.6905 35.1378 12.3669 34.8142 11.9678 34.8142Z" fill="black"/>
<path d="M25.441 24.0996H17.0056C16.2569 24.0996 15.65 24.7065 15.65 25.4552V34.9693C15.65 35.718 16.2569 36.3249 17.0056 36.3249H25.441C26.1897 36.3249 26.7966 35.718 26.7966 34.9693V25.4552C26.7966 24.7065 26.1897 24.0996 25.441 24.0996Z" stroke="black" stroke-width="0.874539" stroke-miterlimit="10"/>
</svg>
