<svg width="43" height="49" viewBox="0 0 43 49" fill="none" xmlns="http://www.w3.org/2000/svg">
<path d="M41.4327 8.27051H2.422V30.0515H41.4327V8.27051Z" fill="#F1EFE5"/>
<path d="M41.1079 31.0264H2.09717V36.878H41.1079V31.0264Z" fill="#649F8E"/>
<path d="M14.0535 42.8962L27.9381 42.4053L31.6799 45.6562V47.2459H11.7194L12.4573 44.268L14.0535 42.8962Z" fill="#649F8E"/>
<path d="M38.8873 6.48291H4.11249C2.19771 6.48291 0.634033 8.04659 0.634033 9.96137V34.5641C0.634033 36.4757 2.19771 38.0426 4.11249 38.0426H16.2838L15.2403 41.8689C12.6331 42.3045 10.6338 44.5639 10.6338 47.3467C10.6338 47.8668 10.9816 48.2147 11.5018 48.2147H31.5858C32.1059 48.2147 32.4538 47.8668 32.4538 47.3467V47.1744C32.366 44.4794 30.3667 42.3045 27.8473 41.8722L26.716 38.0459H38.8873C40.7988 38.0459 42.3658 36.4822 42.3658 34.5674V9.96137C42.3658 8.04984 40.8021 6.48291 38.8873 6.48291ZM26.8883 43.5204C28.7153 43.5204 30.1912 44.7362 30.6268 46.4754H12.4575C12.8932 44.824 14.3691 43.5204 16.1961 43.5204H26.8883ZM17.0641 41.7811L18.1076 38.0426H24.889L25.9325 41.7811H17.0641ZM40.6265 34.5641C40.6265 35.5199 39.8431 36.3034 38.8873 36.3034H4.11249C3.15673 36.3034 2.37326 35.5199 2.37326 34.5641V31.0012H40.6265V34.5641ZM40.6265 29.3465H2.37326V9.96137C2.37326 9.0056 3.15673 8.22214 4.11249 8.22214H38.8873C39.8431 8.22214 40.6265 9.0056 40.6265 9.96137V29.3497V29.3465Z" fill="black"/>
<path d="M22.5417 32.6528H20.4547C19.9345 32.6528 19.5867 33.0007 19.5867 33.5208C19.5867 34.041 19.9345 34.3888 20.4547 34.3888H22.5417C23.0619 34.3888 23.4097 34.041 23.4097 33.5208C23.4097 33.0852 22.9741 32.6528 22.5417 32.6528Z" fill="black"/>
<path d="M10.6857 1.44385H24.7914L32.8471 9.44105L32.5317 29.5999L10.4517 29.7266L10.6857 1.44385Z" fill="#F1EFE5"/>
<path d="M25.4971 0.705565L25.6174 8.85881L33.9559 8.77754L25.6174 0.520264" fill="#F9A779"/>
<path d="M33.949 9.01182C33.949 8.96305 33.936 8.91754 33.923 8.87528C33.9165 8.85903 33.9132 8.83952 33.9035 8.82327C33.8775 8.76475 33.845 8.71274 33.7995 8.66722L25.7307 0.598503C25.6852 0.55299 25.63 0.51723 25.5714 0.491223C25.5552 0.484721 25.5422 0.481471 25.5259 0.474969C25.4804 0.458714 25.4317 0.448962 25.3829 0.445711C25.3731 0.445711 25.3634 0.439209 25.3536 0.439209H10.8286C10.5328 0.439209 10.2922 0.679775 10.2922 0.975607V30.0224C10.2922 30.3182 10.5328 30.5587 10.8286 30.5587H33.4191C33.7149 30.5587 33.9555 30.3182 33.9555 30.0224V9.04433C33.9555 9.04433 33.949 9.02157 33.949 9.01182ZM32.1187 8.50793H25.8868V2.27596L32.1187 8.50793ZM11.365 29.4827V1.51526H24.8107V9.04433C24.8107 9.34016 25.0513 9.58072 25.3471 9.58072H32.8762V29.4827H11.365Z" fill="black" stroke="black" stroke-width="0.499737" stroke-miterlimit="10"/>
<path d="M14.5929 4.74345H21.0459C21.3418 4.74345 21.5823 4.50288 21.5823 4.20705C21.5823 3.91122 21.3418 3.67065 21.0459 3.67065H14.5929C14.2971 3.67065 14.0565 3.91122 14.0565 4.20705C14.0565 4.50288 14.2971 4.74345 14.5929 4.74345Z" fill="black" stroke="black" stroke-width="0.499737" stroke-miterlimit="10"/>
<path d="M14.5929 8.50761H21.0459C21.3418 8.50761 21.5823 8.26704 21.5823 7.97121C21.5823 7.67538 21.3418 7.43481 21.0459 7.43481H14.5929C14.2971 7.43481 14.0565 7.67538 14.0565 7.97121C14.0565 8.26704 14.2971 8.50761 14.5929 8.50761Z" fill="black" stroke="black" stroke-width="0.499737" stroke-miterlimit="10"/>
<path d="M29.6543 11.1968H14.5929C14.2971 11.1968 14.0565 11.4373 14.0565 11.7332C14.0565 12.029 14.2971 12.2696 14.5929 12.2696H29.6543C29.9501 12.2696 30.1907 12.029 30.1907 11.7332C30.1907 11.4373 29.9501 11.1968 29.6543 11.1968Z" fill="black" stroke="black" stroke-width="0.499737" stroke-miterlimit="10"/>
<path d="M29.6543 14.9607H14.5929C14.2971 14.9607 14.0565 15.2013 14.0565 15.4971C14.0565 15.7929 14.2971 16.0335 14.5929 16.0335H29.6543C29.9501 16.0335 30.1907 15.7929 30.1907 15.4971C30.1907 15.2013 29.9501 14.9607 29.6543 14.9607Z" fill="black" stroke="black" stroke-width="0.499737" stroke-miterlimit="10"/>
<path d="M29.6543 18.7258H14.5929C14.2971 18.7258 14.0565 18.9664 14.0565 19.2622C14.0565 19.5581 14.2971 19.7986 14.5929 19.7986H29.6543C29.9501 19.7986 30.1907 19.5581 30.1907 19.2622C30.1907 18.9664 29.9501 18.7258 29.6543 18.7258Z" fill="black" stroke="black" stroke-width="0.499737" stroke-miterlimit="10"/>
<path d="M29.6543 22.4939H14.5929C14.2971 22.4939 14.0565 22.7345 14.0565 23.0303C14.0565 23.3261 14.2971 23.5667 14.5929 23.5667H29.6543C29.9501 23.5667 30.1907 23.3261 30.1907 23.0303C30.1907 22.7345 29.9501 22.4939 29.6543 22.4939Z" fill="black" stroke="black" stroke-width="0.499737" stroke-miterlimit="10"/>
<path d="M29.6543 26.2578H14.5929C14.2971 26.2578 14.0565 26.4984 14.0565 26.7942C14.0565 27.09 14.2971 27.3306 14.5929 27.3306H29.6543C29.9501 27.3306 30.1907 27.09 30.1907 26.7942C30.1907 26.4984 29.9501 26.2578 29.6543 26.2578Z" fill="black" stroke="black" stroke-width="0.499737" stroke-miterlimit="10"/>
<path d="M17.0641 36.843L25.5035 37.2039L27.1289 42.4053H15.6923L17.0641 36.843Z" fill="black"/>
</svg>
