<svg width="854" height="29" viewBox="0 0 854 29" fill="none" xmlns="http://www.w3.org/2000/svg">
<path d="M786.159 17.5248C786.481 17.3762 786.827 17.2277 787.174 17.0544C788.709 16.3611 790.195 15.6926 791.383 14.925C792.869 13.9594 794.255 12.5729 794.255 10.6664C794.255 7.71995 791.829 5.31826 788.907 5.31826H782.321C779.35 5.31826 776.973 7.76947 776.973 10.6911V10.914L781.974 10.8892V10.6664C781.974 10.4683 782.123 10.3197 782.321 10.3197H788.907C788.981 10.3197 789.056 10.3445 789.13 10.394C788.932 10.5426 788.61 10.7654 788.09 11.0625C787.248 11.5329 786.208 12.0034 785.094 12.5233C783.386 13.3156 781.603 14.108 780.167 15.0736C778.458 16.262 776.948 17.8219 776.948 20.0503V22.551L794.206 22.5015L794.181 17.5248H786.159ZM814.382 13.9842C814.382 9.20553 810.421 5.31826 805.717 5.31826H804.157C799.353 5.31826 795.491 9.25505 795.491 13.9842C795.491 18.7875 799.428 22.6501 804.157 22.6501H805.717C810.495 22.6501 814.382 18.7133 814.382 13.9842ZM805.717 10.3445C807.722 10.3445 809.356 11.9786 809.356 13.9842C809.356 15.9897 807.722 17.6238 805.717 17.6238H804.157C802.151 17.6238 800.517 15.9897 800.517 13.9842C800.517 11.9786 802.151 10.3445 804.157 10.3445H805.717ZM824.435 17.5248C824.757 17.3762 825.103 17.2277 825.45 17.0544C826.985 16.3611 828.471 15.6926 829.659 14.925C831.145 13.9594 832.531 12.5729 832.531 10.6664C832.531 7.71995 830.105 5.31826 827.183 5.31826H820.597C817.626 5.31826 815.249 7.76947 815.249 10.6911V10.914L820.25 10.8892V10.6664C820.25 10.4683 820.399 10.3197 820.597 10.3197H827.183C827.257 10.3197 827.332 10.3445 827.406 10.394C827.208 10.5426 826.886 10.7654 826.366 11.0625C825.524 11.5329 824.484 12.0034 823.37 12.5233C821.662 13.3156 819.879 14.108 818.443 15.0736C816.734 16.262 815.224 17.8219 815.224 20.0503V22.551L832.482 22.5015L832.457 17.5248H824.435ZM843.367 17.5248C843.689 17.3762 844.036 17.2277 844.382 17.0544C845.917 16.3611 847.403 15.6926 848.591 14.925C850.077 13.9594 851.464 12.5729 851.464 10.6664C851.464 7.71995 849.037 5.31826 846.115 5.31826H839.529C836.558 5.31826 834.181 7.76947 834.181 10.6911V10.914L839.183 10.8892V10.6664C839.183 10.4683 839.331 10.3197 839.529 10.3197H846.115C846.19 10.3197 846.264 10.3445 846.338 10.394C846.14 10.5426 845.818 10.7654 845.298 11.0625C844.457 11.5329 843.417 12.0034 842.302 12.5233C840.594 13.3156 838.811 14.108 837.375 15.0736C835.667 16.262 834.157 17.8219 834.157 20.0503V22.551L851.414 22.5015L851.389 17.5248H843.367Z" fill="black"/>
<path d="M9.70066 17.6238V5.36778H4.72396L4.62492 5.34302C4.17924 7.10096 2.9165 8.41322 1.05952 8.46274L1.03476 13.4642H1.05952C1.40616 13.4642 2.9165 13.4147 4.64968 12.6224C4.67444 12.5976 4.6992 12.5976 4.6992 12.5729V17.6238H1.05952V22.6253H13.3651V17.6238H9.70066ZM31.4642 11.9291C31.3652 8.80938 28.815 6.40769 25.7448 6.40769H19.951C16.757 6.40769 14.2067 9.00746 14.2067 12.1519C14.2067 15.3707 16.8065 17.8714 19.951 17.8714H25.7448C26.1409 17.8714 26.5123 17.8467 26.8837 17.7724V18.2181C26.8837 18.6637 26.5123 19.0351 26.0419 19.0351H15.0733V23.6404H26.0419C29.0378 23.6404 31.489 21.1892 31.489 18.2181V11.9291H31.4642ZM25.7448 13.2909H19.951C19.3072 13.2909 18.812 12.7709 18.812 12.1519C18.812 11.5082 19.3072 11.013 19.951 11.013H25.7448C26.3637 11.013 26.8837 11.5082 26.8837 12.1519C26.8837 12.7709 26.3637 13.2909 25.7448 13.2909ZM50.2758 11.9291C50.1768 8.80938 47.6265 6.40769 44.5563 6.40769H38.7626C35.5686 6.40769 33.0183 9.00746 33.0183 12.1519C33.0183 15.3707 35.6181 17.8714 38.7626 17.8714H44.5563C44.9525 17.8714 45.3239 17.8467 45.6953 17.7724V18.2181C45.6953 18.6637 45.3239 19.0351 44.8534 19.0351H33.8849V23.6404H44.8534C47.8494 23.6404 50.3006 21.1892 50.3006 18.2181V11.9291H50.2758ZM44.5563 13.2909H38.7626C38.1188 13.2909 37.6236 12.7709 37.6236 12.1519C37.6236 11.5082 38.1188 11.013 38.7626 11.013H44.5563C45.1753 11.013 45.6953 11.5082 45.6953 12.1519C45.6953 12.7709 45.1753 13.2909 44.5563 13.2909ZM60.7434 17.6238V5.36778H55.7667L55.6676 5.34302C55.222 7.10096 53.9592 8.41322 52.1022 8.46274L52.0775 13.4642H52.1022C52.4489 13.4642 53.9592 13.4147 55.6924 12.6224C55.7172 12.5976 55.7419 12.5976 55.7419 12.5729V17.6238H52.1022V22.6253H64.4078V17.6238H60.7434Z" fill="black"/>
<path d="M394.726 0.69751V22.3622" stroke="black" stroke-width="1.54748"/>
<path d="M510.788 0.69751V22.3622" stroke="black" stroke-width="1.54748"/>
<path d="M164.152 0.69751V22.3622" stroke="black" stroke-width="1.54748"/>
<path d="M625.301 0.69751V22.3622" stroke="black" stroke-width="1.54748"/>
<path d="M279.439 0.69751V22.3622" stroke="black" stroke-width="1.54748"/>
<path d="M740.589 0.69751V22.3622" stroke="black" stroke-width="1.54748"/>
<path d="M417.939 13.0774V22.3623" stroke="black" stroke-width="1.54748"/>
<path d="M72.8503 13.0774V22.3623" stroke="black" stroke-width="1.54748"/>
<path d="M534 13.0774V22.3623" stroke="black" stroke-width="1.54748"/>
<path d="M188.138 13.0774V22.3623" stroke="black" stroke-width="1.54748"/>
<path d="M648.513 13.0774V22.3623" stroke="black" stroke-width="1.54748"/>
<path d="M302.651 13.0774V22.3623" stroke="black" stroke-width="1.54748"/>
<path d="M763.801 13.0774V22.3623" stroke="black" stroke-width="1.54748"/>
<path d="M441.151 13.0774V22.3623" stroke="black" stroke-width="1.54748"/>
<path d="M96.0625 13.0774V22.3623" stroke="black" stroke-width="1.54748"/>
<path d="M555.665 13.0774V22.3623" stroke="black" stroke-width="1.54748"/>
<path d="M211.35 13.0774V22.3623" stroke="black" stroke-width="1.54748"/>
<path d="M672.499 13.0774V22.3623" stroke="black" stroke-width="1.54748"/>
<path d="M325.864 13.0774V22.3623" stroke="black" stroke-width="1.54748"/>
<path d="M464.363 13.0774V22.3623" stroke="black" stroke-width="1.54748"/>
<path d="M119.275 13.0774V22.3623" stroke="black" stroke-width="1.54748"/>
<path d="M578.877 13.0774V22.3623" stroke="black" stroke-width="1.54748"/>
<path d="M234.562 13.0774V22.3623" stroke="black" stroke-width="1.54748"/>
<path d="M694.164 13.0774V22.3623" stroke="black" stroke-width="1.54748"/>
<path d="M349.076 13.0774V22.3623" stroke="black" stroke-width="1.54748"/>
<path d="M487.575 13.0774V22.3623" stroke="black" stroke-width="1.54748"/>
<path d="M140.939 13.0774V22.3623" stroke="black" stroke-width="1.54748"/>
<path d="M602.089 13.0774V22.3623" stroke="black" stroke-width="1.54748"/>
<path d="M257.774 13.0774V22.3623" stroke="black" stroke-width="1.54748"/>
<path d="M717.376 13.0774V22.3623" stroke="black" stroke-width="1.54748"/>
<path d="M372.288 13.0774V22.3623" stroke="black" stroke-width="1.54748"/>
</svg>
